<svg width="102" height="66" viewBox="0 0 102 66" fill="none" xmlns="http://www.w3.org/2000/svg">
<rect width="102" height="66" rx="12" fill="#2666AC"/>
<path d="M9.33398 16.0713V15.5713C9.12723 15.5713 8.9418 15.6985 8.86744 15.8915L9.33398 16.0713ZM11.8301 16.0713L12.2967 15.8917C12.2224 15.6987 12.0369 15.5713 11.8301 15.5713V16.0713ZM16.8047 29V29.5C16.9694 29.5 17.1236 29.4188 17.2169 29.283C17.3101 29.1472 17.3305 28.9742 17.2713 28.8204L16.8047 29ZM14.2471 29L13.7796 29.1774C13.8533 29.3716 14.0394 29.5 14.2471 29.5V29ZM13.2363 26.3369L13.7038 26.1595C13.6301 25.9653 13.444 25.8369 13.2363 25.8369V26.3369ZM7.96289 26.3369V25.8369C7.75781 25.8369 7.57353 25.9621 7.49802 26.1528L7.96289 26.3369ZM6.9082 29V29.5C7.11328 29.5 7.29756 29.3748 7.37307 29.1841L6.9082 29ZM4.35059 29L3.88404 28.8202C3.82477 28.9739 3.84508 29.147 3.93833 29.2829C4.03158 29.4188 4.18579 29.5 4.35059 29.5V29ZM10.5996 19.499L11.066 19.3189C10.9917 19.1263 10.8065 18.9992 10.6 18.999C10.3936 18.9988 10.2082 19.1256 10.1335 19.3181L10.5996 19.499ZM8.87695 23.9375L8.41083 23.7566C8.35113 23.9104 8.37116 24.0838 8.46437 24.2199C8.55757 24.3561 8.71195 24.4375 8.87695 24.4375V23.9375ZM12.3135 23.9375V24.4375C12.4783 24.4375 12.6326 24.3562 12.7258 24.2203C12.8191 24.0843 12.8393 23.9112 12.7799 23.7574L12.3135 23.9375ZM9.33398 16.5713H11.8301V15.5713H9.33398V16.5713ZM11.3634 16.2508L16.338 29.1796L17.2713 28.8204L12.2967 15.8917L11.3634 16.2508ZM16.8047 28.5H14.2471V29.5H16.8047V28.5ZM14.7145 28.8226L13.7038 26.1595L12.7689 26.5143L13.7796 29.1774L14.7145 28.8226ZM13.2363 25.8369H7.96289V26.8369H13.2363V25.8369ZM7.49802 26.1528L6.44333 28.8159L7.37307 29.1841L8.42776 26.521L7.49802 26.1528ZM6.9082 28.5H4.35059V29.5H6.9082V28.5ZM4.81713 29.1798L9.80053 16.2511L8.86744 15.8915L3.88404 28.8202L4.81713 29.1798ZM10.1335 19.3181L8.41083 23.7566L9.34308 24.1184L11.0657 19.6799L10.1335 19.3181ZM8.87695 24.4375H12.3135V23.4375H8.87695V24.4375ZM12.7799 23.7574L11.066 19.3189L10.1332 19.6791L11.847 24.1176L12.7799 23.7574ZM19.9688 16.0713V15.5713C19.7254 15.5713 19.5174 15.7464 19.476 15.9862L19.9688 16.0713ZM22.377 16.0713L22.8516 15.914C22.7838 15.7094 22.5925 15.5713 22.377 15.5713V16.0713ZM25.3652 25.0889L24.8906 25.2461C24.9583 25.4504 25.149 25.5884 25.3641 25.5889C25.5793 25.5893 25.7706 25.4521 25.8392 25.2482L25.3652 25.0889ZM28.3975 16.0713V15.5713C28.1827 15.5713 27.992 15.7084 27.9235 15.9119L28.3975 16.0713ZM30.7705 16.0713L31.2635 15.9882C31.223 15.7475 31.0146 15.5713 30.7705 15.5713V16.0713ZM32.9502 29V29.5C33.0973 29.5 33.237 29.4352 33.332 29.3228C33.427 29.2105 33.4677 29.062 33.4432 28.9169L32.9502 29ZM30.5771 29L30.0842 29.0838C30.1251 29.3242 30.3334 29.5 30.5771 29.5V29ZM29.1885 20.835L29.6814 20.7511C29.643 20.5253 29.456 20.3544 29.2276 20.3365C28.9992 20.3186 28.7878 20.4582 28.7146 20.6753L29.1885 20.835ZM26.4375 29V29.5C26.6521 29.5 26.8428 29.363 26.9113 29.1596L26.4375 29ZM24.2666 29L23.7922 29.1578C23.8601 29.3621 24.0513 29.5 24.2666 29.5V29ZM21.5508 20.835L22.0252 20.6772C21.9529 20.4597 21.742 20.3192 21.5134 20.3364C21.2849 20.3535 21.0973 20.5238 21.0581 20.7496L21.5508 20.835ZM20.1357 29V29.5C20.3789 29.5 20.5869 29.325 20.6284 29.0854L20.1357 29ZM17.7363 29L17.2436 28.9149C17.2185 29.0603 17.2589 29.2093 17.3539 29.3221C17.4489 29.4349 17.5888 29.5 17.7363 29.5V29ZM19.9688 16.5713H22.377V15.5713H19.9688V16.5713ZM21.9023 16.2286L24.8906 25.2461L25.8399 24.9316L22.8516 15.914L21.9023 16.2286ZM25.8392 25.2482L28.8714 16.2306L27.9235 15.9119L24.8913 24.9295L25.8392 25.2482ZM28.3975 16.5713H30.7705V15.5713H28.3975V16.5713ZM30.2775 16.1544L32.4572 29.0831L33.4432 28.9169L31.2635 15.9882L30.2775 16.1544ZM32.9502 28.5H30.5771V29.5H32.9502V28.5ZM31.0701 28.9162L29.6814 20.7511L28.6956 20.9188L30.0842 29.0838L31.0701 28.9162ZM28.7146 20.6753L25.9637 28.8404L26.9113 29.1596L29.6623 20.9946L28.7146 20.6753ZM26.4375 28.5H24.2666V29.5H26.4375V28.5ZM24.741 28.8422L22.0252 20.6772L21.0763 20.9928L23.7922 29.1578L24.741 28.8422ZM21.0581 20.7496L19.6431 28.9146L20.6284 29.0854L22.0434 20.9203L21.0581 20.7496ZM20.1357 28.5H17.7363V29.5H20.1357V28.5ZM18.229 29.0851L20.4615 16.1564L19.476 15.9862L17.2436 28.9149L18.229 29.0851ZM34.9365 16.0713V15.5713C34.6604 15.5713 34.4365 15.7951 34.4365 16.0713H34.9365ZM41.9941 16.0713H42.4941C42.4941 15.7951 42.2703 15.5713 41.9941 15.5713V16.0713ZM41.9941 18.4795V18.9795C42.2703 18.9795 42.4941 18.7556 42.4941 18.4795H41.9941ZM37.3799 18.4795V17.9795C37.1037 17.9795 36.8799 18.2033 36.8799 18.4795H37.3799ZM37.3799 20.8174H36.8799C36.8799 21.0935 37.1037 21.3174 37.3799 21.3174V20.8174ZM41.9941 20.8174H42.4941C42.4941 20.5412 42.2703 20.3174 41.9941 20.3174V20.8174ZM41.9941 23.1816V23.6816C42.2703 23.6816 42.4941 23.4578 42.4941 23.1816H41.9941ZM37.3799 23.1816V22.6816C37.1037 22.6816 36.8799 22.9055 36.8799 23.1816H37.3799ZM37.3799 26.583H36.8799C36.8799 26.8592 37.1037 27.083 37.3799 27.083V26.583ZM41.9941 26.583H42.4941C42.4941 26.3069 42.2703 26.083 41.9941 26.083V26.583ZM41.9941 29V29.5C42.2703 29.5 42.4941 29.2761 42.4941 29H41.9941ZM34.9365 29H34.4365C34.4365 29.2761 34.6604 29.5 34.9365 29.5V29ZM34.9365 16.5713H41.9941V15.5713H34.9365V16.5713ZM41.4941 16.0713V18.4795H42.4941V16.0713H41.4941ZM41.9941 17.9795H37.3799V18.9795H41.9941V17.9795ZM36.8799 18.4795V20.8174H37.8799V18.4795H36.8799ZM37.3799 21.3174H41.9941V20.3174H37.3799V21.3174ZM41.4941 20.8174V23.1816H42.4941V20.8174H41.4941ZM41.9941 22.6816H37.3799V23.6816H41.9941V22.6816ZM36.8799 23.1816V26.583H37.8799V23.1816H36.8799ZM37.3799 27.083H41.9941V26.083H37.3799V27.083ZM41.4941 26.583V29H42.4941V26.583H41.4941ZM41.9941 28.5H34.9365V29.5H41.9941V28.5ZM35.4365 29V16.0713H34.4365V29H35.4365ZM44.4639 16.0713V15.5713C44.1877 15.5713 43.9639 15.7951 43.9639 16.0713H44.4639ZM50.124 16.458L49.9276 16.9178L49.933 16.9201L50.124 16.458ZM51.5303 21.96L51.1234 21.6693L51.1228 21.6701L51.5303 21.96ZM49.6934 23.252L49.5252 22.7811C49.3884 22.83 49.2795 22.9359 49.2271 23.0714C49.1746 23.2069 49.1837 23.3586 49.252 23.4868L49.6934 23.252ZM52.752 29V29.5C52.9275 29.5 53.0902 29.4079 53.1806 29.2575C53.271 29.107 53.2758 28.9201 53.1934 28.7651L52.752 29ZM50.0625 29L49.621 29.2346C49.7077 29.3979 49.8776 29.5 50.0625 29.5V29ZM47.1533 23.5244L47.5949 23.2898C47.5081 23.1265 47.3383 23.0244 47.1533 23.0244V23.5244ZM46.9248 23.5244V23.0244C46.6487 23.0244 46.4248 23.2483 46.4248 23.5244H46.9248ZM46.9248 29V29.5C47.2009 29.5 47.4248 29.2761 47.4248 29H46.9248ZM44.4639 29H43.9639C43.9639 29.2761 44.1877 29.5 44.4639 29.5V29ZM46.9248 21.125H46.4248C46.4248 21.4011 46.6487 21.625 46.9248 21.625V21.125ZM49.3154 20.8174L49.0325 20.4051L49.0287 20.4078L49.3154 20.8174ZM49.5439 19.0684L49.1332 19.3536L49.1371 19.359L49.5439 19.0684ZM48.9551 18.6201L48.777 19.0875L48.7869 19.091L48.9551 18.6201ZM46.9248 18.4795V17.9795C46.6487 17.9795 46.4248 18.2033 46.4248 18.4795H46.9248ZM44.4639 16.5713H47.0742V15.5713H44.4639V16.5713ZM47.0742 16.5713C48.4974 16.5713 49.4248 16.703 49.9276 16.9178L50.3204 15.9982C49.6163 15.6974 48.5104 15.5713 47.0742 15.5713V16.5713ZM49.933 16.9201C50.4402 17.1298 50.8503 17.4796 51.1676 17.9883L52.016 17.459C51.5951 16.7841 51.0266 16.2901 50.3151 15.9959L49.933 16.9201ZM51.1676 17.9883C51.4797 18.4887 51.6455 19.094 51.6455 19.8242H52.6455C52.6455 18.9373 52.4422 18.1422 52.016 17.459L51.1676 17.9883ZM51.6455 19.8242C51.6455 20.5913 51.4615 21.196 51.1234 21.6693L51.9371 22.2506C52.4194 21.5755 52.6455 20.7563 52.6455 19.8242H51.6455ZM51.1228 21.6701C50.7912 22.1364 50.2733 22.5139 49.5252 22.7811L49.8615 23.7228C50.7541 23.4041 51.4608 22.9203 51.9377 22.2498L51.1228 21.6701ZM49.252 23.4868L52.3106 29.2349L53.1934 28.7651L50.1348 23.0171L49.252 23.4868ZM52.752 28.5H50.0625V29.5H52.752V28.5ZM50.504 28.7654L47.5949 23.2898L46.7118 23.759L49.621 29.2346L50.504 28.7654ZM47.1533 23.0244H46.9248V24.0244H47.1533V23.0244ZM46.4248 23.5244V29H47.4248V23.5244H46.4248ZM46.9248 28.5H44.4639V29.5H46.9248V28.5ZM44.9639 29V16.0713H43.9639V29H44.9639ZM46.9248 21.625H47.6982V20.625H46.9248V21.625ZM47.6982 21.625C48.11 21.625 48.4745 21.5983 48.7848 21.5393C49.0904 21.4812 49.3752 21.3859 49.6022 21.227L49.0287 20.4078C48.9627 20.4539 48.8315 20.5125 48.598 20.5569C48.3693 20.6004 48.0716 20.625 47.6982 20.625V21.625ZM49.5984 21.2296C50.0739 20.9033 50.2637 20.3807 50.2637 19.7979H49.2637C49.2637 20.1643 49.1547 20.3213 49.0325 20.4051L49.5984 21.2296ZM50.2637 19.7979C50.2637 19.425 50.1648 19.0773 49.9508 18.7777L49.1371 19.359C49.216 19.4695 49.2637 19.6082 49.2637 19.7979H50.2637ZM49.9546 18.7832C49.7475 18.485 49.4657 18.2716 49.1232 18.1492L48.7869 19.091C48.9366 19.1445 49.0474 19.2299 49.1333 19.3536L49.9546 18.7832ZM49.1331 18.1529C48.7911 18.0226 48.2542 17.9795 47.6016 17.9795V18.9795C48.2614 18.9795 48.6269 19.0301 48.7771 19.0874L49.1331 18.1529ZM47.6016 17.9795H46.9248V18.9795H47.6016V17.9795ZM46.4248 18.4795V21.125H47.4248V18.4795H46.4248ZM54.5625 16.0713V15.5713C54.2864 15.5713 54.0625 15.7951 54.0625 16.0713H54.5625ZM57.0059 16.0713H57.5059C57.5059 15.7951 57.282 15.5713 57.0059 15.5713V16.0713ZM57.0059 29V29.5C57.282 29.5 57.5059 29.2761 57.5059 29H57.0059ZM54.5625 29H54.0625C54.0625 29.2761 54.2864 29.5 54.5625 29.5V29ZM54.5625 16.5713H57.0059V15.5713H54.5625V16.5713ZM56.5059 16.0713V29H57.5059V16.0713H56.5059ZM57.0059 28.5H54.5625V29.5H57.0059V28.5ZM55.0625 29V16.0713H54.0625V29H55.0625ZM71.666 18.3477L72.0112 18.7094C72.2036 18.5258 72.2186 18.2236 72.0453 18.0218L71.666 18.3477ZM69.9434 19.9912L69.5805 20.3352C69.6719 20.4316 69.7979 20.4877 69.9308 20.4911C70.0636 20.4944 70.1924 20.4447 70.2885 20.353L69.9434 19.9912ZM62.8594 19.4023L62.507 19.0476L62.5058 19.0488L62.8594 19.4023ZM67.9922 26.5654L68.1957 27.0222L68.1994 27.0205L67.9922 26.5654ZM69.9434 25.1064L70.3041 24.7603C70.2113 24.6635 70.0836 24.6081 69.9496 24.6065C69.8155 24.6048 69.6864 24.657 69.5913 24.7514L69.9434 25.1064ZM71.6133 26.8467L71.9624 27.2046C72.1589 27.0129 72.1641 26.6986 71.974 26.5005L71.6133 26.8467ZM68.9062 28.7891L69.1001 29.2499L69.1028 29.2488L68.9062 28.7891ZM61.0576 27.418L60.7041 27.7715L60.7057 27.7731L61.0576 27.418ZM60.0117 19.0771L59.5801 18.8247L59.579 18.8266L60.0117 19.0771ZM62.5166 16.6602L62.2726 16.2237L62.2716 16.2243L62.5166 16.6602ZM69.1084 16.4229L68.9001 16.8774L68.9011 16.8779L69.1084 16.4229ZM71.3209 17.9859L69.5982 19.6294L70.2885 20.353L72.0112 18.7094L71.3209 17.9859ZM70.3062 19.6472C69.0567 18.329 67.613 17.6367 65.9883 17.6367V18.6367C67.2933 18.6367 68.4863 19.1808 69.5805 20.3352L70.3062 19.6472ZM65.9883 17.6367C64.6247 17.6367 63.4537 18.1075 62.507 19.0476L63.2117 19.7571C63.9643 19.0097 64.8792 18.6367 65.9883 18.6367V17.6367ZM62.5058 19.0488C61.5646 19.99 61.0938 21.1589 61.0938 22.5225H62.0938C62.0938 21.4134 62.4667 20.5022 63.2129 19.7559L62.5058 19.0488ZM61.0938 22.5225C61.0938 23.4587 61.2983 24.3095 61.7203 25.0612L62.5922 24.5716C62.2642 23.9874 62.0938 23.3089 62.0938 22.5225H61.0938ZM61.7203 25.0612C62.1417 25.8119 62.7398 26.402 63.5042 26.8267L63.9899 25.9526C63.3833 25.6156 62.9208 25.1569 62.5922 24.5716L61.7203 25.0612ZM63.5042 26.8267C64.2691 27.2517 65.1154 27.4609 66.0322 27.4609V26.4609C65.2733 26.4609 64.5961 26.2893 63.9899 25.9526L63.5042 26.8267ZM66.0322 27.4609C66.8099 27.4609 67.5335 27.3172 68.1957 27.0221L67.7887 26.1087C67.2673 26.341 66.6843 26.4609 66.0322 26.4609V27.4609ZM68.1994 27.0205C68.8658 26.7169 69.5645 26.1863 70.2954 25.4615L69.5913 24.7514C68.9042 25.4328 68.3021 25.8749 67.7849 26.1104L68.1994 27.0205ZM69.5826 25.4526L71.2525 27.1929L71.974 26.5005L70.3041 24.7603L69.5826 25.4526ZM71.2641 26.4888C70.3353 27.3948 69.4834 27.9985 68.7097 28.3293L69.1028 29.2488C70.0283 28.8531 70.9811 28.1618 71.9624 27.2046L71.2641 26.4888ZM68.7124 28.3282C67.9343 28.6555 67.0323 28.8252 65.9971 28.8252V29.8252C67.1416 29.8252 68.179 29.6374 69.1001 29.2499L68.7124 28.3282ZM65.9971 28.8252C64.1029 28.8252 62.5882 28.2307 61.4095 27.0628L60.7057 27.7731C62.0935 29.1482 63.8717 29.8252 65.9971 29.8252V28.8252ZM61.4112 27.0644C60.2377 25.8909 59.6416 24.3882 59.6416 22.5137H58.6416C58.6416 24.6235 59.3229 26.3903 60.7041 27.7715L61.4112 27.0644ZM59.6416 22.5137C59.6416 21.3024 59.9133 20.2451 60.4444 19.3277L59.579 18.8266C58.95 19.9131 58.6416 21.1469 58.6416 22.5137H59.6416ZM60.4433 19.3296C60.9813 18.4097 61.7493 17.6651 62.7616 17.096L62.2716 16.2243C61.1159 16.874 60.2141 17.7407 59.5801 18.8247L60.4433 19.3296ZM62.7606 17.0966C63.7756 16.5291 64.8634 16.2461 66.0322 16.2461V15.2461C64.6933 15.2461 63.4373 15.5725 62.2726 16.2237L62.7606 17.0966ZM66.0322 16.2461C67.0256 16.2461 67.98 16.4557 68.9001 16.8774L69.3167 15.9683C68.268 15.4877 67.1717 15.2461 66.0322 15.2461V16.2461ZM68.9011 16.8779C69.8248 17.2987 70.6188 17.896 71.2868 18.6735L72.0453 18.0218C71.2835 17.1352 70.3725 16.4493 69.3157 15.9679L68.9011 16.8779ZM77.7656 16.0713V15.5713C77.5589 15.5713 77.3734 15.6985 77.2991 15.8915L77.7656 16.0713ZM80.2617 16.0713L80.7284 15.8917C80.6541 15.6987 80.4686 15.5713 80.2617 15.5713V16.0713ZM85.2363 29V29.5C85.4011 29.5 85.5552 29.4188 85.6485 29.283C85.7418 29.1472 85.7621 28.9742 85.703 28.8204L85.2363 29ZM82.6787 29L82.2112 29.1774C82.2849 29.3716 82.471 29.5 82.6787 29.5V29ZM81.668 26.3369L82.1354 26.1595C82.0617 25.9653 81.8757 25.8369 81.668 25.8369V26.3369ZM76.3945 26.3369V25.8369C76.1895 25.8369 76.0052 25.9621 75.9297 26.1528L76.3945 26.3369ZM75.3398 29V29.5C75.5449 29.5 75.7292 29.3748 75.8047 29.1841L75.3398 29ZM72.7822 29L72.3157 28.8202C72.2564 28.9739 72.2767 29.147 72.37 29.2829C72.4632 29.4188 72.6174 29.5 72.7822 29.5V29ZM79.0312 19.499L79.4977 19.3189C79.4233 19.1263 79.2382 18.9992 79.0317 18.999C78.8252 18.9988 78.6398 19.1256 78.5651 19.3181L79.0312 19.499ZM77.3086 23.9375L76.8425 23.7566C76.7828 23.9104 76.8028 24.0838 76.896 24.2199C76.9892 24.3561 77.1436 24.4375 77.3086 24.4375V23.9375ZM80.7451 23.9375V24.4375C80.91 24.4375 81.0642 24.3562 81.1575 24.2203C81.2507 24.0843 81.2709 23.9112 81.2116 23.7574L80.7451 23.9375ZM77.7656 16.5713H80.2617V15.5713H77.7656V16.5713ZM79.7951 16.2508L84.7697 29.1796L85.703 28.8204L80.7284 15.8917L79.7951 16.2508ZM85.2363 28.5H82.6787V29.5H85.2363V28.5ZM83.1462 28.8226L82.1354 26.1595L81.2005 26.5143L82.2112 29.1774L83.1462 28.8226ZM81.668 25.8369H76.3945V26.8369H81.668V25.8369ZM75.9297 26.1528L74.875 28.8159L75.8047 29.1841L76.8594 26.521L75.9297 26.1528ZM75.3398 28.5H72.7822V29.5H75.3398V28.5ZM73.2488 29.1798L78.2322 16.2511L77.2991 15.8915L72.3157 28.8202L73.2488 29.1798ZM78.5651 19.3181L76.8425 23.7566L77.7747 24.1184L79.4974 19.6799L78.5651 19.3181ZM77.3086 24.4375H80.7451V23.4375H77.3086V24.4375ZM81.2116 23.7574L79.4977 19.3189L78.5648 19.6791L80.2787 24.1176L81.2116 23.7574ZM87.1611 16.0713V15.5713C86.885 15.5713 86.6611 15.7951 86.6611 16.0713H87.1611ZM89.5166 16.0713L89.9355 15.7982C89.8432 15.6567 89.6856 15.5713 89.5166 15.5713V16.0713ZM95.0625 24.5791L94.6436 24.8521C94.7645 25.0375 94.9928 25.1214 95.2049 25.0584C95.417 24.9954 95.5625 24.8004 95.5625 24.5791H95.0625ZM95.0625 16.0713V15.5713C94.7864 15.5713 94.5625 15.7951 94.5625 16.0713H95.0625ZM97.5234 16.0713H98.0234C98.0234 15.7951 97.7996 15.5713 97.5234 15.5713V16.0713ZM97.5234 29V29.5C97.7996 29.5 98.0234 29.2761 98.0234 29H97.5234ZM95.1592 29L94.7405 29.2733C94.8328 29.4147 94.9903 29.5 95.1592 29.5V29ZM89.6221 20.5186L90.0407 20.2452C89.9198 20.06 89.6915 19.9762 89.4795 20.0393C89.2674 20.1024 89.1221 20.2973 89.1221 20.5186H89.6221ZM89.6221 29V29.5C89.8982 29.5 90.1221 29.2761 90.1221 29H89.6221ZM87.1611 29H86.6611C86.6611 29.2761 86.885 29.5 87.1611 29.5V29ZM87.1611 16.5713H89.5166V15.5713H87.1611V16.5713ZM89.0977 16.3443L94.6436 24.8521L95.4814 24.3061L89.9355 15.7982L89.0977 16.3443ZM95.5625 24.5791V16.0713H94.5625V24.5791H95.5625ZM95.0625 16.5713H97.5234V15.5713H95.0625V16.5713ZM97.0234 16.0713V29H98.0234V16.0713H97.0234ZM97.5234 28.5H95.1592V29.5H97.5234V28.5ZM95.5779 28.7267L90.0407 20.2452L89.2034 20.7919L94.7405 29.2733L95.5779 28.7267ZM89.1221 20.5186V29H90.1221V20.5186H89.1221ZM89.6221 28.5H87.1611V29.5H89.6221V28.5ZM87.6611 29V16.0713H86.6611V29H87.6611ZM30.2256 38.0713V37.5713C29.9494 37.5713 29.7256 37.7951 29.7256 38.0713H30.2256ZM37.2832 38.0713H37.7832C37.7832 37.7951 37.5593 37.5713 37.2832 37.5713V38.0713ZM37.2832 40.4795V40.9795C37.5593 40.9795 37.7832 40.7556 37.7832 40.4795H37.2832ZM32.6689 40.4795V39.9795C32.3928 39.9795 32.1689 40.2033 32.1689 40.4795H32.6689ZM32.6689 42.8174H32.1689C32.1689 43.0935 32.3928 43.3174 32.6689 43.3174V42.8174ZM37.2832 42.8174H37.7832C37.7832 42.5412 37.5593 42.3174 37.2832 42.3174V42.8174ZM37.2832 45.1816V45.6816C37.5593 45.6816 37.7832 45.4578 37.7832 45.1816H37.2832ZM32.6689 45.1816V44.6816C32.3928 44.6816 32.1689 44.9055 32.1689 45.1816H32.6689ZM32.6689 48.583H32.1689C32.1689 48.8592 32.3928 49.083 32.6689 49.083V48.583ZM37.2832 48.583H37.7832C37.7832 48.3069 37.5593 48.083 37.2832 48.083V48.583ZM37.2832 51V51.5C37.5593 51.5 37.7832 51.2761 37.7832 51H37.2832ZM30.2256 51H29.7256C29.7256 51.2761 29.9494 51.5 30.2256 51.5V51ZM30.2256 38.5713H37.2832V37.5713H30.2256V38.5713ZM36.7832 38.0713V40.4795H37.7832V38.0713H36.7832ZM37.2832 39.9795H32.6689V40.9795H37.2832V39.9795ZM32.1689 40.4795V42.8174H33.1689V40.4795H32.1689ZM32.6689 43.3174H37.2832V42.3174H32.6689V43.3174ZM36.7832 42.8174V45.1816H37.7832V42.8174H36.7832ZM37.2832 44.6816H32.6689V45.6816H37.2832V44.6816ZM32.1689 45.1816V48.583H33.1689V45.1816H32.1689ZM32.6689 49.083H37.2832V48.083H32.6689V49.083ZM36.7832 48.583V51H37.7832V48.583H36.7832ZM37.2832 50.5H30.2256V51.5H37.2832V50.5ZM30.7256 51V38.0713H29.7256V51H30.7256ZM38.7422 38.0713V37.5713C38.5585 37.5713 38.3897 37.672 38.3024 37.8335C38.215 37.995 38.2233 38.1915 38.3238 38.3451L38.7422 38.0713ZM41.5107 38.0713L41.9292 37.7976C41.8369 37.6564 41.6795 37.5713 41.5107 37.5713V38.0713ZM44.2178 42.2109L43.7993 42.4846C43.8914 42.6255 44.0483 42.7106 44.2167 42.7109C44.385 42.7113 44.5423 42.6269 44.635 42.4864L44.2178 42.2109ZM46.9512 38.0713V37.5713C46.7832 37.5713 46.6265 37.6556 46.5339 37.7958L46.9512 38.0713ZM49.7197 38.0713L50.1375 38.3459C50.2385 38.1923 50.2471 37.9957 50.1598 37.8339C50.0725 37.6721 49.9035 37.5713 49.7197 37.5713V38.0713ZM45.6064 44.3291L45.1886 44.0545C45.0792 44.2209 45.079 44.4364 45.1881 44.603L45.6064 44.3291ZM49.9746 51V51.5C50.1583 51.5 50.3271 51.3993 50.4145 51.2377C50.5018 51.0762 50.4935 50.8797 50.3929 50.7261L49.9746 51ZM47.2061 51L46.7883 51.2747C46.8808 51.4153 47.0378 51.5 47.2061 51.5V51ZM44.2178 46.4561L44.6355 46.1813C44.5429 46.0404 44.3854 45.9557 44.2168 45.9561C44.0481 45.9564 43.891 46.0417 43.7989 46.183L44.2178 46.4561ZM41.2559 51V51.5C41.4249 51.5 41.5824 51.4146 41.6747 51.273L41.2559 51ZM38.4697 51L38.0514 50.7261C37.9508 50.8797 37.9425 51.0762 38.0299 51.2377C38.1172 51.3993 38.2861 51.5 38.4697 51.5V51ZM42.8379 44.3291L43.2562 44.603C43.3651 44.4367 43.3651 44.2216 43.2563 44.0553L42.8379 44.3291ZM38.7422 38.5713H41.5107V37.5713H38.7422V38.5713ZM41.0923 38.3449L43.7993 42.4846L44.6362 41.9373L41.9292 37.7976L41.0923 38.3449ZM44.635 42.4864L47.3684 38.3468L46.5339 37.7958L43.8005 41.9354L44.635 42.4864ZM46.9512 38.5713H49.7197V37.5713H46.9512V38.5713ZM49.3019 37.7967L45.1886 44.0545L46.0243 44.6037L50.1375 38.3459L49.3019 37.7967ZM45.1881 44.603L49.5563 51.2739L50.3929 50.7261L46.0247 44.0552L45.1881 44.603ZM49.9746 50.5H47.2061V51.5H49.9746V50.5ZM47.6238 50.7253L44.6355 46.1813L43.8 46.7308L46.7883 51.2747L47.6238 50.7253ZM43.7989 46.183L40.837 50.727L41.6747 51.273L44.6366 46.7291L43.7989 46.183ZM41.2559 50.5H38.4697V51.5H41.2559V50.5ZM38.888 51.2739L43.2562 44.603L42.4196 44.0552L38.0514 50.7261L38.888 51.2739ZM43.2563 44.0553L39.1605 37.7975L38.3238 38.3451L42.4195 44.6029L43.2563 44.0553ZM51.8291 38.0713V37.5713C51.553 37.5713 51.3291 37.7951 51.3291 38.0713H51.8291ZM57.4893 38.4668L57.2939 38.9271L57.2991 38.9292L57.4893 38.4668ZM58.9658 39.7324L58.5389 39.9928L58.5421 39.9978L58.9658 39.7324ZM58.7988 44.0742L58.4073 43.7633L58.4054 43.7656L58.7988 44.0742ZM56.8828 45.3223L57.0194 45.8033L57.022 45.8025L56.8828 45.3223ZM54.29 45.5244V45.0244C54.0139 45.0244 53.79 45.2483 53.79 45.5244H54.29ZM54.29 51V51.5C54.5662 51.5 54.79 51.2761 54.79 51H54.29ZM51.8291 51H51.3291C51.3291 51.2761 51.553 51.5 51.8291 51.5V51ZM54.29 43.125H53.79C53.79 43.4011 54.0139 43.625 54.29 43.625V43.125ZM56.918 42.5625L56.5056 42.2797L56.5038 42.2823L56.918 42.5625ZM56.5488 40.7344L56.2903 41.1624L56.2945 41.1648L56.5488 40.7344ZM54.29 40.4795V39.9795C54.0139 39.9795 53.79 40.2033 53.79 40.4795H54.29ZM51.8291 38.5713H54.4395V37.5713H51.8291V38.5713ZM54.4395 38.5713C55.8418 38.5713 56.7716 38.7053 57.2939 38.927L57.6846 38.0066C56.9648 37.7009 55.8613 37.5713 54.4395 37.5713V38.5713ZM57.2991 38.9292C57.8264 39.146 58.2362 39.4965 58.539 39.9928L59.3927 39.472C58.9806 38.7965 58.4061 38.3032 57.6794 38.0044L57.2991 38.9292ZM58.5421 39.9978C58.8467 40.4843 59.0107 41.0856 59.0107 41.8242H60.0107C60.0107 40.9339 59.8115 40.1407 59.3896 39.467L58.5421 39.9978ZM59.0107 41.8242C59.0107 42.6351 58.7994 43.2695 58.4073 43.7633L59.1904 44.3852C59.7475 43.6836 60.0107 42.8181 60.0107 41.8242H59.0107ZM58.4054 43.7656C58.0083 44.272 57.463 44.6335 56.7436 44.842L57.022 45.8025C57.9198 45.5423 58.6519 45.0718 59.1923 44.3828L58.4054 43.7656ZM56.7462 44.8413C56.3467 44.9547 55.5473 45.0244 54.29 45.0244V46.0244C55.5406 46.0244 56.4697 45.9593 57.0194 45.8033L56.7462 44.8413ZM53.79 45.5244V51H54.79V45.5244H53.79ZM54.29 50.5H51.8291V51.5H54.29V50.5ZM52.3291 51V38.0713H51.3291V51H52.3291ZM54.29 43.625H55.0723V42.625H54.29V43.625ZM55.0723 43.625C55.6866 43.625 56.1952 43.5842 56.5273 43.4627L56.1837 42.5236C56.0353 42.5779 55.6884 42.625 55.0723 42.625V43.625ZM56.5273 43.4627C56.8595 43.3412 57.1346 43.1346 57.3321 42.8427L56.5038 42.2823C56.4318 42.3888 56.3319 42.4694 56.1837 42.5236L56.5273 43.4627ZM57.3303 42.8453C57.5365 42.5446 57.6289 42.1962 57.6289 41.8242H56.6289C56.6289 42.0265 56.5807 42.1702 56.5056 42.2797L57.3303 42.8453ZM57.6289 41.8242C57.6289 41.1725 57.3611 40.6336 56.8032 40.3039L56.2945 41.1648C56.51 41.2922 56.6289 41.4798 56.6289 41.8242H57.6289ZM56.8074 40.3064C56.589 40.1745 56.3173 40.097 56.0272 40.0497C55.7311 40.0015 55.3815 39.9795 54.9844 39.9795V40.9795C55.349 40.9795 55.641 41 55.8664 41.0367C56.0978 41.0744 56.2274 41.1244 56.2903 41.1623L56.8074 40.3064ZM54.9844 39.9795H54.29V40.9795H54.9844V39.9795ZM53.79 40.4795V43.125H54.79V40.4795H53.79ZM62.0947 38.0713V37.5713C61.8186 37.5713 61.5947 37.7951 61.5947 38.0713H62.0947ZM67.7549 38.458L67.5584 38.9178L67.5638 38.9201L67.7549 38.458ZM69.1611 43.96L68.7543 43.6693L68.7537 43.6701L69.1611 43.96ZM67.3242 45.252L67.1561 44.7811C67.0192 44.83 66.9104 44.9359 66.8579 45.0714C66.8055 45.2069 66.8146 45.3586 66.8828 45.4868L67.3242 45.252ZM70.3828 51V51.5C70.5584 51.5 70.721 51.4079 70.8114 51.2575C70.9018 51.107 70.9067 50.9201 70.8242 50.7651L70.3828 51ZM67.6934 51L67.2518 51.2346C67.3386 51.3979 67.5084 51.5 67.6934 51.5V51ZM64.7842 45.5244L65.2257 45.2898C65.139 45.1265 64.9691 45.0244 64.7842 45.0244V45.5244ZM64.5557 45.5244V45.0244C64.2795 45.0244 64.0557 45.2483 64.0557 45.5244H64.5557ZM64.5557 51V51.5C64.8318 51.5 65.0557 51.2761 65.0557 51H64.5557ZM62.0947 51H61.5947C61.5947 51.2761 61.8186 51.5 62.0947 51.5V51ZM64.5557 43.125H64.0557C64.0557 43.4011 64.2795 43.625 64.5557 43.625V43.125ZM66.9463 42.8174L66.6634 42.4051L66.6596 42.4078L66.9463 42.8174ZM67.1748 41.0684L66.7641 41.3536L66.7679 41.359L67.1748 41.0684ZM66.5859 40.6201L66.4079 41.0875L66.4178 41.091L66.5859 40.6201ZM64.5557 40.4795V39.9795C64.2795 39.9795 64.0557 40.2033 64.0557 40.4795H64.5557ZM62.0947 38.5713H64.7051V37.5713H62.0947V38.5713ZM64.7051 38.5713C66.1283 38.5713 67.0556 38.703 67.5585 38.9178L67.9513 37.9982C67.2471 37.6974 66.1413 37.5713 64.7051 37.5713V38.5713ZM67.5638 38.9201C68.071 39.1298 68.4811 39.4796 68.7984 39.9883L69.6469 39.459C69.2259 38.7841 68.6575 38.2901 67.9459 37.9959L67.5638 38.9201ZM68.7984 39.9883C69.1106 40.4887 69.2764 41.094 69.2764 41.8242H70.2764C70.2764 40.9373 70.073 40.1422 69.6469 39.459L68.7984 39.9883ZM69.2764 41.8242C69.2764 42.5913 69.0923 43.196 68.7543 43.6693L69.568 44.2506C70.0502 43.5755 70.2764 42.7563 70.2764 41.8242H69.2764ZM68.7537 43.6701C68.4221 44.1364 67.9041 44.5139 67.1561 44.7811L67.4924 45.7228C68.3849 45.4041 69.0916 44.9203 69.5686 44.2498L68.7537 43.6701ZM66.8828 45.4868L69.9414 51.2349L70.8242 50.7651L67.7656 45.0171L66.8828 45.4868ZM70.3828 50.5H67.6934V51.5H70.3828V50.5ZM68.1349 50.7654L65.2257 45.2898L64.3426 45.759L67.2518 51.2346L68.1349 50.7654ZM64.7842 45.0244H64.5557V46.0244H64.7842V45.0244ZM64.0557 45.5244V51H65.0557V45.5244H64.0557ZM64.5557 50.5H62.0947V51.5H64.5557V50.5ZM62.5947 51V38.0713H61.5947V51H62.5947ZM64.5557 43.625H65.3291V42.625H64.5557V43.625ZM65.3291 43.625C65.7409 43.625 66.1054 43.5983 66.4157 43.5393C66.7212 43.4812 67.006 43.3859 67.233 43.227L66.6596 42.4078C66.5936 42.4539 66.4624 42.5125 66.2288 42.5569C66.0001 42.6004 65.7025 42.625 65.3291 42.625V43.625ZM67.2292 43.2296C67.7047 42.9033 67.8945 42.3807 67.8945 41.7979H66.8945C66.8945 42.1643 66.7855 42.3213 66.6634 42.4051L67.2292 43.2296ZM67.8945 41.7979C67.8945 41.425 67.7957 41.0773 67.5817 40.7777L66.7679 41.359C66.8469 41.4695 66.8945 41.6082 66.8945 41.7979H67.8945ZM67.5855 40.7832C67.3784 40.485 67.0966 40.2716 66.7541 40.1492L66.4178 41.091C66.5675 41.1445 66.6782 41.2299 66.7641 41.3536L67.5855 40.7832ZM66.7639 40.1529C66.4219 40.0226 65.885 39.9795 65.2324 39.9795V40.9795C65.8923 40.9795 66.2578 41.0301 66.4079 41.0874L66.7639 40.1529ZM65.2324 39.9795H64.5557V40.9795H65.2324V39.9795ZM64.0557 40.4795V43.125H65.0557V40.4795H64.0557ZM72.3779 38.0713V37.5713C72.1018 37.5713 71.8779 37.7951 71.8779 38.0713H72.3779ZM79.4355 38.0713H79.9355C79.9355 37.7951 79.7117 37.5713 79.4355 37.5713V38.0713ZM79.4355 40.4795V40.9795C79.7117 40.9795 79.9355 40.7556 79.9355 40.4795H79.4355ZM74.8213 40.4795V39.9795C74.5451 39.9795 74.3213 40.2033 74.3213 40.4795H74.8213ZM74.8213 42.8174H74.3213C74.3213 43.0935 74.5451 43.3174 74.8213 43.3174V42.8174ZM79.4355 42.8174H79.9355C79.9355 42.5412 79.7117 42.3174 79.4355 42.3174V42.8174ZM79.4355 45.1816V45.6816C79.7117 45.6816 79.9355 45.4578 79.9355 45.1816H79.4355ZM74.8213 45.1816V44.6816C74.5451 44.6816 74.3213 44.9055 74.3213 45.1816H74.8213ZM74.8213 48.583H74.3213C74.3213 48.8592 74.5451 49.083 74.8213 49.083V48.583ZM79.4355 48.583H79.9355C79.9355 48.3069 79.7117 48.083 79.4355 48.083V48.583ZM79.4355 51V51.5C79.7117 51.5 79.9355 51.2761 79.9355 51H79.4355ZM72.3779 51H71.8779C71.8779 51.2761 72.1018 51.5 72.3779 51.5V51ZM72.3779 38.5713H79.4355V37.5713H72.3779V38.5713ZM78.9355 38.0713V40.4795H79.9355V38.0713H78.9355ZM79.4355 39.9795H74.8213V40.9795H79.4355V39.9795ZM74.3213 40.4795V42.8174H75.3213V40.4795H74.3213ZM74.8213 43.3174H79.4355V42.3174H74.8213V43.3174ZM78.9355 42.8174V45.1816H79.9355V42.8174H78.9355ZM79.4355 44.6816H74.8213V45.6816H79.4355V44.6816ZM74.3213 45.1816V48.583H75.3213V45.1816H74.3213ZM74.8213 49.083H79.4355V48.083H74.8213V49.083ZM78.9355 48.583V51H79.9355V48.583H78.9355ZM79.4355 50.5H72.3779V51.5H79.4355V50.5ZM72.8779 51V38.0713H71.8779V51H72.8779ZM88.5146 39.8291L88.8458 40.2037C89.0506 40.0226 89.0721 39.7106 88.8939 39.5032L88.5146 39.8291ZM86.6953 41.4375L86.289 41.7289C86.3714 41.8438 86.4987 41.9185 86.6392 41.9343C86.7798 41.9502 86.9205 41.9058 87.0265 41.8121L86.6953 41.4375ZM83.9531 40.3652L84.2722 40.7503L84.2785 40.7449L83.9531 40.3652ZM83.8652 41.5605L83.4667 41.8625L83.4696 41.8663L83.8652 41.5605ZM85.667 43.2217L85.3436 43.603L85.346 43.605L85.667 43.2217ZM87.3721 44.707L87.0134 45.0554L87.0165 45.0585L87.3721 44.707ZM88.4268 46.1572L87.9696 46.3598L87.9728 46.3668L88.4268 46.1572ZM82.3711 50.6484L82.0946 51.065L82.0962 51.0661L82.3711 50.6484ZM80.6221 48.5215L80.3635 48.0935C80.14 48.2286 80.0581 48.5129 80.1754 48.7462L80.6221 48.5215ZM82.6875 47.2734L83.1268 47.0346C83.0616 46.9147 82.9501 46.8266 82.8183 46.7908C82.6865 46.7551 82.5458 46.7749 82.4289 46.8455L82.6875 47.2734ZM84.5684 45.542L84.8848 45.1549L84.8846 45.1547L84.5684 45.542ZM81.8438 42.8877L81.4253 43.1614L81.4265 43.1632L81.8438 42.8877ZM82.248 38.7129L82.5904 39.0773L82.5905 39.0772L82.248 38.7129ZM86.6162 38.1943L86.3872 38.6388L86.389 38.6398L86.6162 38.1943ZM88.1835 39.4545L86.3641 41.0629L87.0265 41.8121L88.8458 40.2037L88.1835 39.4545ZM87.1016 41.1461C86.4307 40.2105 85.65 39.6016 84.7441 39.6016V40.6016C85.1625 40.6016 85.6826 40.8832 86.289 41.7289L87.1016 41.1461ZM84.7441 39.6016C84.3267 39.6016 83.9402 39.7178 83.6277 39.9856L84.2785 40.7449C84.3762 40.6612 84.5171 40.6016 84.7441 40.6016V39.6016ZM83.6341 39.9802C83.3431 40.2214 83.1455 40.546 83.1455 40.9453H84.1455C84.1455 40.911 84.153 40.849 84.2721 40.7502L83.6341 39.9802ZM83.1455 40.9453C83.1455 41.284 83.2626 41.5931 83.4667 41.8625L84.2638 41.2586C84.1749 41.1413 84.1455 41.0402 84.1455 40.9453H83.1455ZM83.4696 41.8663C83.598 42.0324 83.8269 42.2609 84.1262 42.5368C84.4336 42.8203 84.8401 43.1761 85.3436 43.603L85.9904 42.8403C85.4919 42.4177 85.0971 42.0718 84.804 41.8016C84.5027 41.5238 84.3317 41.3465 84.2609 41.2548L83.4696 41.8663ZM85.346 43.605C86.2917 44.3971 86.8364 44.8732 87.0134 45.0554L87.7307 44.3586C87.5093 44.1307 86.9173 43.6166 85.988 42.8384L85.346 43.605ZM87.0165 45.0585C87.4877 45.5353 87.7968 45.9696 87.9696 46.3598L88.8839 45.9547C88.6466 45.4191 88.2526 44.8866 87.7277 44.3556L87.0165 45.0585ZM87.9728 46.3668C88.151 46.7528 88.2432 47.1815 88.2432 47.6602H89.2432C89.2432 47.0489 89.1244 46.4757 88.8807 45.9477L87.9728 46.3668ZM88.2432 47.6602C88.2432 48.5913 87.9279 49.333 87.3013 49.9245L87.9878 50.6517C88.826 49.8603 89.2432 48.8501 89.2432 47.6602H88.2432ZM87.3013 49.9245C86.6772 50.5136 85.8525 50.8252 84.7793 50.8252V51.8252C86.0615 51.8252 87.147 51.4454 87.9878 50.6517L87.3013 49.9245ZM84.7793 50.8252C83.9449 50.8252 83.2403 50.6219 82.646 50.2308L82.0962 51.0661C82.873 51.5773 83.7739 51.8252 84.7793 51.8252V50.8252ZM82.6476 50.2319C82.0602 49.842 81.5283 49.2105 81.0687 48.2968L80.1754 48.7462C80.6885 49.7661 81.3226 50.5526 82.0946 51.065L82.6476 50.2319ZM80.8807 48.9494L82.9461 47.7014L82.4289 46.8455L80.3635 48.0935L80.8807 48.9494ZM82.2482 47.5122C82.9 48.7113 83.746 49.4873 84.832 49.4873V48.4873C84.3008 48.4873 83.7172 48.1207 83.1268 47.0346L82.2482 47.5122ZM84.832 49.4873C85.3585 49.4873 85.8326 49.3307 86.2209 48.9978L85.5701 48.2385C85.3842 48.3979 85.1493 48.4873 84.832 48.4873V49.4873ZM86.2209 48.9978C86.5976 48.6749 86.8262 48.2597 86.8262 47.7656H85.8262C85.8262 47.9161 85.7676 48.0692 85.5701 48.2385L86.2209 48.9978ZM86.8262 47.7656C86.8262 47.3418 86.6676 46.947 86.4029 46.5893L85.5991 47.1841C85.7679 47.4124 85.8262 47.6035 85.8262 47.7656H86.8262ZM86.4029 46.5893C86.1441 46.2396 85.6197 45.7556 84.8848 45.1549L84.2519 45.9291C84.9935 46.5354 85.4242 46.9479 85.5991 47.1841L86.4029 46.5893ZM84.8846 45.1547C83.4773 44.0054 82.6246 43.1628 82.261 42.6122L81.4265 43.1632C81.8832 43.8548 82.8469 44.7817 84.2521 45.9293L84.8846 45.1547ZM82.2622 42.614C81.8941 42.0514 81.7285 41.521 81.7285 41.0156H80.7285C80.7285 41.7524 80.973 42.4701 81.4253 43.1614L82.2622 42.614ZM81.7285 41.0156C81.7285 40.2633 82.0067 39.6257 82.5904 39.0773L81.9057 38.3485C81.13 39.0774 80.7285 39.975 80.7285 41.0156H81.7285ZM82.5905 39.0772C83.177 38.5258 83.8956 38.2461 84.7793 38.2461V37.2461C83.6591 37.2461 82.6902 37.6109 81.9056 38.3486L82.5905 39.0772ZM84.7793 38.2461C85.3431 38.2461 85.8771 38.376 86.3872 38.6388L86.8452 37.7498C86.1952 37.415 85.5045 37.2461 84.7793 37.2461V38.2461ZM86.389 38.6398C86.893 38.8968 87.4762 39.3877 88.1354 40.155L88.8939 39.5032C88.1938 38.6884 87.5112 38.0895 86.8434 37.7489L86.389 38.6398ZM97.8838 39.8291L98.215 40.2037C98.4198 40.0226 98.4412 39.7106 98.263 39.5032L97.8838 39.8291ZM96.0645 41.4375L95.6581 41.7289C95.7406 41.8438 95.8678 41.9185 96.0084 41.9343C96.1489 41.9502 96.2896 41.9058 96.3956 41.8121L96.0645 41.4375ZM93.3223 40.3652L93.6413 40.7503L93.6477 40.7449L93.3223 40.3652ZM93.2344 41.5605L92.8358 41.8625L92.8387 41.8663L93.2344 41.5605ZM95.0361 43.2217L94.7128 43.603L94.7151 43.605L95.0361 43.2217ZM96.7412 44.707L96.3826 45.0554L96.3856 45.0585L96.7412 44.707ZM97.7959 46.1572L97.3387 46.3598L97.3419 46.3668L97.7959 46.1572ZM91.7402 50.6484L91.4637 51.065L91.4654 51.0661L91.7402 50.6484ZM89.9912 48.5215L89.7326 48.0935C89.5091 48.2286 89.4272 48.5129 89.5445 48.7462L89.9912 48.5215ZM92.0566 47.2734L92.4959 47.0346C92.4307 46.9147 92.3192 46.8266 92.1874 46.7908C92.0556 46.7551 91.9149 46.7749 91.7981 46.8455L92.0566 47.2734ZM93.9375 45.542L94.254 45.1549L94.2538 45.1547L93.9375 45.542ZM91.2129 42.8877L90.7945 43.1614L90.7957 43.1632L91.2129 42.8877ZM91.6172 38.7129L91.9596 39.0773L91.9597 39.0772L91.6172 38.7129ZM95.9854 38.1943L95.7564 38.6388L95.7582 38.6398L95.9854 38.1943ZM97.5526 39.4545L95.7333 41.0629L96.3956 41.8121L98.215 40.2037L97.5526 39.4545ZM96.4708 41.1461C95.7998 40.2105 95.0192 39.6016 94.1133 39.6016V40.6016C94.5316 40.6016 95.0517 40.8832 95.6581 41.7289L96.4708 41.1461ZM94.1133 39.6016C93.6958 39.6016 93.3094 39.7178 92.9969 39.9856L93.6477 40.7449C93.7453 40.6612 93.8862 40.6016 94.1133 40.6016V39.6016ZM93.0033 39.9802C92.7122 40.2214 92.5146 40.546 92.5146 40.9453H93.5146C93.5146 40.911 93.5221 40.849 93.6413 40.7502L93.0033 39.9802ZM92.5146 40.9453C92.5146 41.284 92.6318 41.5931 92.8358 41.8625L93.6329 41.2586C93.544 41.1413 93.5146 41.0402 93.5146 40.9453H92.5146ZM92.8387 41.8663C92.9671 42.0324 93.196 42.2609 93.4953 42.5368C93.8028 42.8203 94.2093 43.1761 94.7128 43.603L95.3595 42.8403C94.8611 42.4177 94.4663 42.0718 94.1731 41.8016C93.8718 41.5238 93.7009 41.3465 93.63 41.2548L92.8387 41.8663ZM94.7151 43.605C95.6609 44.3971 96.2055 44.8732 96.3826 45.0554L97.0999 44.3586C96.8785 44.1307 96.2864 43.6166 95.3572 42.8384L94.7151 43.605ZM96.3856 45.0585C96.8568 45.5353 97.1659 45.9696 97.3388 46.3598L98.253 45.9547C98.0157 45.4191 97.6217 44.8866 97.0968 44.3556L96.3856 45.0585ZM97.3419 46.3668C97.5201 46.7528 97.6123 47.1815 97.6123 47.6602H98.6123C98.6123 47.0489 98.4936 46.4757 98.2499 45.9477L97.3419 46.3668ZM97.6123 47.6602C97.6123 48.5913 97.297 49.333 96.6704 49.9245L97.3569 50.6517C98.1952 49.8603 98.6123 48.8501 98.6123 47.6602H97.6123ZM96.6704 49.9245C96.0464 50.5136 95.2217 50.8252 94.1484 50.8252V51.8252C95.4307 51.8252 96.5161 51.4454 97.3569 50.6517L96.6704 49.9245ZM94.1484 50.8252C93.314 50.8252 92.6094 50.6219 92.0151 50.2308L91.4654 51.0661C92.2422 51.5773 93.143 51.8252 94.1484 51.8252V50.8252ZM92.0168 50.2319C91.4294 49.842 90.8975 49.2105 90.4379 48.2968L89.5445 48.7462C90.0576 49.7661 90.6917 50.5526 91.4637 51.065L92.0168 50.2319ZM90.2498 48.9494L92.3152 47.7014L91.7981 46.8455L89.7326 48.0935L90.2498 48.9494ZM91.6173 47.5122C92.2692 48.7113 93.1152 49.4873 94.2012 49.4873V48.4873C93.67 48.4873 93.0863 48.1207 92.4959 47.0346L91.6173 47.5122ZM94.2012 49.4873C94.7276 49.4873 95.2017 49.3307 95.59 48.9978L94.9393 48.2385C94.7534 48.3979 94.5185 48.4873 94.2012 48.4873V49.4873ZM95.59 48.9978C95.9667 48.6749 96.1953 48.2597 96.1953 47.7656H95.1953C95.1953 47.9161 95.1368 48.0692 94.9393 48.2385L95.59 48.9978ZM96.1953 47.7656C96.1953 47.3418 96.0368 46.947 95.772 46.5893L94.9682 47.1841C95.1371 47.4124 95.1953 47.6035 95.1953 47.7656H96.1953ZM95.772 46.5893C95.5133 46.2396 94.9889 45.7556 94.254 45.1549L93.621 45.9291C94.3627 46.5354 94.7934 46.9479 94.9682 47.1841L95.772 46.5893ZM94.2538 45.1547C92.8464 44.0054 91.9938 43.1628 91.6301 42.6122L90.7957 43.1632C91.2523 43.8548 92.2161 44.7817 93.6212 45.9293L94.2538 45.1547ZM91.6313 42.614C91.2633 42.0514 91.0977 41.521 91.0977 41.0156H90.0977C90.0977 41.7524 90.3422 42.4701 90.7945 43.1614L91.6313 42.614ZM91.0977 41.0156C91.0977 40.2633 91.3759 39.6257 91.9596 39.0773L91.2748 38.3485C90.4991 39.0774 90.0977 39.975 90.0977 41.0156H91.0977ZM91.9597 39.0772C92.5461 38.5258 93.2647 38.2461 94.1484 38.2461V37.2461C93.0283 37.2461 92.0594 37.6109 91.2747 38.3486L91.9597 39.0772ZM94.1484 38.2461C94.7123 38.2461 95.2462 38.376 95.7564 38.6388L96.2143 37.7498C95.5644 37.415 94.8736 37.2461 94.1484 37.2461V38.2461ZM95.7582 38.6398C96.2622 38.8968 96.8453 39.3877 97.5046 40.155L98.263 39.5032C97.5629 38.6884 96.8804 38.0895 96.2125 37.7489L95.7582 38.6398Z" fill="white"/>
</svg>
