<svg width="103" height="66" viewBox="0 0 103 66" fill="none" xmlns="http://www.w3.org/2000/svg">
<rect x="0.997437" width="102" height="66" rx="12" fill="white"/>
<path d="M23.9974 40H46.0434L58.0684 26.7023H79.9807L74.6363 33.0852H84.6571C87.0087 33.0852 87.8638 31.1349 87.9974 30.1597V23.3779C87.9974 19.5482 85.2361 18.9453 83.8555 19.1226H48.4484C44.2797 18.378 40.7434 21.2059 39.4964 22.713L23.9974 40Z" fill="#FBDD4B"/>
<path d="M80.9974 26H58.9515L46.9265 39.2977H25.0141L30.3586 32.9148H20.3377C17.9862 32.9148 17.131 34.8651 16.9974 35.8403V42.6221C16.9974 46.4518 19.7587 47.0547 21.1394 46.8774H56.5465C60.7152 47.622 64.2514 44.7941 65.4985 43.287L80.9974 26Z" fill="#1A4E8D"/>
</svg>
