<svg width="102" height="66" viewBox="0 0 102 66" fill="none" xmlns="http://www.w3.org/2000/svg">
<rect width="102" height="66" rx="12" fill="#2666AC"/>
<path d="M12.8457 21.1426H17.5918L22.2148 39.8105L32.2168 21.1426H37.4375L23.6035 47H19.2617L12.8457 21.1426ZM40.707 21.1426H45.4531L41.8848 47H37.2266L40.707 21.1426ZM64.1738 24.7461L60.6406 27.875C59.1875 26 57.834 25.0625 56.5801 25.0625C55.959 25.0625 55.4434 25.25 55.0332 25.625C54.623 25.9883 54.418 26.4277 54.418 26.9434C54.418 27.4238 54.6055 27.957 54.9805 28.543C55.3555 29.1289 56.4922 30.4238 58.3906 32.4277C59.3984 33.4941 60.0605 34.25 60.377 34.6953C61.1387 35.7266 61.6836 36.6934 62.0117 37.5957C62.3516 38.4863 62.5215 39.3945 62.5215 40.3203C62.5215 42.3945 61.7832 44.1348 60.3066 45.541C58.8301 46.9473 56.9375 47.6504 54.6289 47.6504C51.1133 47.6504 48.248 45.9805 46.0332 42.6406L49.7598 39.6348C51.2598 41.9199 52.8828 43.0625 54.6289 43.0625C55.4609 43.0625 56.1582 42.793 56.7207 42.2539C57.2949 41.7148 57.582 41.0645 57.582 40.3027C57.582 39.7051 57.4062 39.0957 57.0547 38.4746C56.7148 37.8535 55.7305 36.6816 54.1016 34.959C52.3789 33.1426 51.248 31.7715 50.709 30.8457C49.9824 29.5918 49.6191 28.3613 49.6191 27.1543C49.6191 25.5605 50.1406 24.1309 51.1836 22.8652C52.4961 21.2832 54.2656 20.4922 56.4922 20.4922C59.5508 20.4922 62.1113 21.9102 64.1738 24.7461ZM78.5703 21.1426H82.666L89.0996 47H84.3887L83.0176 41.498H72.8047L69.834 47H64.6133L78.5703 21.1426ZM81.8398 36.9277L79.7656 28.4375L75.2129 36.9277H81.8398Z" fill="white"/>
<path d="M6 21H17.5L19 27L6 21Z" fill="#EEA84D"/>
</svg>
