<svg width="103" height="66" viewBox="0 0 103 66" fill="none" xmlns="http://www.w3.org/2000/svg">
<rect x="0.997437" width="102" height="66" rx="12" fill="#26365F"/>
<path d="M58.322 12.688L42.1921 14.4802L35.0233 37.7789L44.8804 53.9087L58.322 53.0126L70.8674 42.2594L58.322 12.688Z" fill="#FF5C00"/>
<path fill-rule="evenodd" clip-rule="evenodd" d="M52.9454 13.1169C45.9814 17.1454 41.296 24.6749 41.296 33.2987C41.296 41.9225 45.9814 49.452 52.9454 53.4804C49.5185 55.4628 45.5398 56.5973 41.2961 56.5973C28.4286 56.5973 17.9974 46.1662 17.9974 33.2987C17.9974 20.4312 28.4286 10 41.2961 10C45.5398 10 49.5185 11.1346 52.9454 13.1169Z" fill="#FC0101"/>
<path fill-rule="evenodd" clip-rule="evenodd" d="M52.0493 13.117C59.0133 17.1454 63.6986 24.6749 63.6986 33.2987C63.6986 41.9225 59.0133 49.4519 52.0493 53.4804C55.4762 55.4628 59.4549 56.5973 63.6986 56.5973C76.5661 56.5973 86.9973 46.1662 86.9973 33.2987C86.9973 20.4312 76.5661 10 63.6986 10C59.4549 10 55.4762 11.1346 52.0493 13.117Z" fill="#FCD401"/>
</svg>
