<svg width="102" height="66" viewBox="0 0 102 66" fill="none" xmlns="http://www.w3.org/2000/svg">
<rect width="102" height="66" rx="12" fill="white"/>
<path d="M23 40H45.0459L57.071 26.7023H78.9833L73.6388 33.0852H83.6597C86.0113 33.0852 86.8664 31.1349 87 30.1597V23.3779C87 19.5482 84.2387 18.9453 82.858 19.1226H47.4509C43.2823 18.378 39.746 21.2059 38.499 22.713L23 40Z" fill="#FBDD4B"/>
<path d="M80 26H57.9541L45.929 39.2977H24.0167L29.3612 32.9148H19.3403C16.9887 32.9148 16.1336 34.8651 16 35.8403V42.6221C16 46.4518 18.7613 47.0547 20.142 46.8774H55.5491C59.7177 47.622 63.254 44.7941 64.501 43.287L80 26Z" fill="#1A4E8D"/>
</svg>
