<svg width="103" height="66" viewBox="0 0 103 66" fill="none" xmlns="http://www.w3.org/2000/svg">
<rect x="0.997437" width="102" height="66" rx="12" fill="#2666AC"/>
<path d="M13.8431 21.1426H18.5892L23.2123 39.8105L33.2142 21.1426H38.4349L24.601 47H20.2592L13.8431 21.1426ZM41.7045 21.1426H46.4506L42.8822 47H38.224L41.7045 21.1426ZM65.1713 24.7461L61.6381 27.875C60.1849 26 58.8314 25.0625 57.5775 25.0625C56.9564 25.0625 56.4408 25.25 56.0306 25.625C55.6205 25.9883 55.4154 26.4277 55.4154 26.9434C55.4154 27.4238 55.6029 27.957 55.9779 28.543C56.3529 29.1289 57.4896 30.4238 59.3881 32.4277C60.3959 33.4941 61.058 34.25 61.3744 34.6953C62.1361 35.7266 62.681 36.6934 63.0092 37.5957C63.349 38.4863 63.5189 39.3945 63.5189 40.3203C63.5189 42.3945 62.7806 44.1348 61.3041 45.541C59.8275 46.9473 57.9349 47.6504 55.6263 47.6504C52.1107 47.6504 49.2455 45.9805 47.0306 42.6406L50.7572 39.6348C52.2572 41.9199 53.8802 43.0625 55.6263 43.0625C56.4584 43.0625 57.1556 42.793 57.7181 42.2539C58.2924 41.7148 58.5795 41.0645 58.5795 40.3027C58.5795 39.7051 58.4037 39.0957 58.0521 38.4746C57.7123 37.8535 56.7279 36.6816 55.099 34.959C53.3763 33.1426 52.2455 31.7715 51.7064 30.8457C50.9799 29.5918 50.6166 28.3613 50.6166 27.1543C50.6166 25.5605 51.1381 24.1309 52.181 22.8652C53.4935 21.2832 55.2631 20.4922 57.4896 20.4922C60.5482 20.4922 63.1088 21.9102 65.1713 24.7461ZM79.5677 21.1426H83.6635L90.097 47H85.3861L84.015 41.498H73.8021L70.8314 47H65.6107L79.5677 21.1426ZM82.8373 36.9277L80.7631 28.4375L76.2103 36.9277H82.8373Z" fill="white"/>
<path d="M6.99744 21H18.4974L19.9974 27L6.99744 21Z" fill="#EEA84D"/>
</svg>
