<svg width="102" height="66" viewBox="0 0 102 66" fill="none" xmlns="http://www.w3.org/2000/svg">
<rect width="102" height="66" rx="12" fill="#26365F"/>
<path d="M57.3246 12.688L41.1947 14.4802L34.0259 37.7789L43.883 53.9087L57.3246 53.0126L69.87 42.2594L57.3246 12.688Z" fill="#FF5C00"/>
<path fill-rule="evenodd" clip-rule="evenodd" d="M51.948 13.1169C44.984 17.1454 40.2986 24.6749 40.2986 33.2987C40.2986 41.9225 44.984 49.452 51.948 53.4804C48.5211 55.4628 44.5424 56.5973 40.2987 56.5973C27.4312 56.5973 17 46.1662 17 33.2987C17 20.4312 27.4312 10 40.2987 10C44.5424 10 48.5211 11.1346 51.948 13.1169Z" fill="#FC0101"/>
<path fill-rule="evenodd" clip-rule="evenodd" d="M51.052 13.117C58.016 17.1454 62.7013 24.6749 62.7013 33.2987C62.7013 41.9225 58.016 49.4519 51.052 53.4804C54.4789 55.4628 58.4576 56.5973 62.7013 56.5973C75.5688 56.5973 86 46.1662 86 33.2987C86 20.4312 75.5688 10 62.7013 10C58.4576 10 54.4789 11.1346 51.052 13.117Z" fill="#FCD401"/>
</svg>
