<svg width="103" height="66" viewBox="0 0 103 66" fill="none" xmlns="http://www.w3.org/2000/svg">
<rect x="0.997437" width="102" height="66" rx="12" fill="#2666AC"/>
<path d="M10.3314 16.0713V14.0713C9.50441 14.0713 8.7627 14.5803 8.46525 15.352L10.3314 16.0713ZM12.8275 16.0713L14.6941 15.3531C14.397 14.5808 13.655 14.0713 12.8275 14.0713V16.0713ZM17.8021 29V31C18.4611 31 19.0778 30.6754 19.4508 30.1322C19.8239 29.5889 19.9054 28.8968 19.6687 28.2818L17.8021 29ZM15.2445 29L13.3747 29.7097C13.6694 30.4864 14.4137 31 15.2445 31V29ZM14.2338 26.3369L16.1036 25.6272C15.8088 24.8505 15.0645 24.3369 14.2338 24.3369V26.3369ZM8.96033 26.3369V24.3369C8.14002 24.3369 7.40289 24.8378 7.10085 25.6005L8.96033 26.3369ZM7.90564 29V31C8.72594 31 9.46307 30.4991 9.76512 29.7364L7.90564 29ZM5.34802 29L3.48185 28.2807C3.24477 28.8958 3.32599 29.5882 3.69899 30.1317C4.07198 30.6752 4.68883 31 5.34802 31V29ZM11.597 19.499L13.4628 18.7786C13.1653 18.0081 12.4247 17.4997 11.5988 17.499C10.7728 17.4983 10.0314 18.0054 9.73255 18.7754L11.597 19.499ZM9.87439 23.9375L8.0099 23.2139C7.77109 23.8291 7.85122 24.5226 8.22404 25.0673C8.59687 25.6119 9.21438 25.9375 9.87439 25.9375V23.9375ZM13.3109 23.9375V25.9375C13.9703 25.9375 14.5873 25.6125 14.9603 25.0687C15.3332 24.5249 15.4142 23.8322 15.1767 23.2171L13.3109 23.9375ZM10.3314 18.0713H12.8275V14.0713H10.3314V18.0713ZM10.9609 16.7895L15.9355 29.7182L19.6687 28.2818L14.6941 15.3531L10.9609 16.7895ZM17.8021 27H15.2445V31H17.8021V27ZM17.1144 28.2903L16.1036 25.6272L12.3639 27.0466L13.3747 29.7097L17.1144 28.2903ZM14.2338 24.3369H8.96033V28.3369H14.2338V24.3369ZM7.10085 25.6005L6.04616 28.2636L9.76512 29.7364L10.8198 27.0733L7.10085 25.6005ZM7.90564 27H5.34802V31H7.90564V27ZM7.21419 29.7193L12.1976 16.7906L8.46525 15.352L3.48185 28.2807L7.21419 29.7193ZM9.73255 18.7754L8.0099 23.2139L11.7389 24.6611L13.4615 20.2227L9.73255 18.7754ZM9.87439 25.9375H13.3109V21.9375H9.87439V25.9375ZM15.1767 23.2171L13.4628 18.7786L9.73131 20.2195L11.4452 24.6579L15.1767 23.2171ZM20.9662 16.0713V14.0713C19.9929 14.0713 19.161 14.7719 18.9954 15.731L20.9662 16.0713ZM23.3744 16.0713L25.2729 15.4422C25.0017 14.6238 24.2365 14.0713 23.3744 14.0713V16.0713ZM26.3627 25.0889L24.4642 25.718C24.7349 26.5348 25.4977 27.087 26.3583 27.0889C27.2188 27.0907 27.9841 26.542 28.2584 25.7263L26.3627 25.0889ZM29.3949 16.0713V14.0713C28.536 14.0713 27.773 14.6197 27.4992 15.4338L29.3949 16.0713ZM31.7679 16.0713L33.7401 15.7388C33.5778 14.7761 32.7442 14.0713 31.7679 14.0713V16.0713ZM33.9476 29V31C34.5362 31 35.0949 30.7408 35.4749 30.2913C35.8549 29.8419 36.0176 29.2479 35.9198 28.6675L33.9476 29ZM31.5746 29L29.6029 29.3353C29.7664 30.2967 30.5994 31 31.5746 31V29ZM30.1859 20.835L32.1576 20.4996C32.0039 19.5962 31.2559 18.9127 30.3423 18.8411C29.4286 18.7694 28.5832 19.3279 28.2906 20.1964L30.1859 20.835ZM27.4349 29V31C28.2934 31 29.0561 30.4521 29.3303 29.6386L27.4349 29ZM25.264 29L23.3663 29.6312C23.6381 30.4485 24.4027 31 25.264 31V29ZM22.5482 20.835L24.446 20.2037C24.1567 19.3339 23.313 18.7721 22.3989 18.8405C21.4847 18.909 20.7341 19.5902 20.5776 20.4934L22.5482 20.835ZM21.1332 29V31C22.106 31 22.9377 30.3 23.1038 29.3415L21.1332 29ZM18.7338 29L16.7629 28.6597C16.6625 29.241 16.8239 29.837 17.204 30.2883C17.584 30.7395 18.1438 31 18.7338 31V29ZM20.9662 18.0713H23.3744V14.0713H20.9662V18.0713ZM21.4759 16.7004L24.4642 25.718L28.2611 24.4597L25.2729 15.4422L21.4759 16.7004ZM28.2584 25.7263L31.2906 16.7087L27.4992 15.4338L24.467 24.4514L28.2584 25.7263ZM29.3949 18.0713H31.7679V14.0713H29.3949V18.0713ZM29.7958 16.4038L31.9755 29.3325L35.9198 28.6675L33.7401 15.7388L29.7958 16.4038ZM33.9476 27H31.5746V31H33.9476V27ZM33.5463 28.6647L32.1576 20.4996L28.2142 21.1703L29.6029 29.3353L33.5463 28.6647ZM28.2906 20.1964L25.5396 28.3614L29.3303 29.6386L32.0812 21.4735L28.2906 20.1964ZM27.4349 27H25.264V31H27.4349V27ZM27.1618 28.3688L24.446 20.2037L20.6504 21.4662L23.3663 29.6312L27.1618 28.3688ZM20.5776 20.4934L19.1626 28.6585L23.1038 29.3415L24.5188 21.1765L20.5776 20.4934ZM21.1332 27H18.7338V31H21.1332V27ZM20.7046 29.3403L22.937 16.4116L18.9954 15.731L16.7629 28.6597L20.7046 29.3403ZM35.934 16.0713V14.0713C34.8294 14.0713 33.934 14.9667 33.934 16.0713H35.934ZM42.9916 16.0713H44.9916C44.9916 14.9667 44.0961 14.0713 42.9916 14.0713V16.0713ZM42.9916 18.4795V20.4795C44.0961 20.4795 44.9916 19.5841 44.9916 18.4795H42.9916ZM38.3773 18.4795V16.4795C37.2727 16.4795 36.3773 17.3749 36.3773 18.4795H38.3773ZM38.3773 20.8174H36.3773C36.3773 21.922 37.2727 22.8174 38.3773 22.8174V20.8174ZM42.9916 20.8174H44.9916C44.9916 19.7128 44.0961 18.8174 42.9916 18.8174V20.8174ZM42.9916 23.1816V25.1816C44.0961 25.1816 44.9916 24.2862 44.9916 23.1816H42.9916ZM38.3773 23.1816V21.1816C37.2727 21.1816 36.3773 22.0771 36.3773 23.1816H38.3773ZM38.3773 26.583H36.3773C36.3773 27.6876 37.2727 28.583 38.3773 28.583V26.583ZM42.9916 26.583H44.9916C44.9916 25.4784 44.0961 24.583 42.9916 24.583V26.583ZM42.9916 29V31C44.0961 31 44.9916 30.1046 44.9916 29H42.9916ZM35.934 29H33.934C33.934 30.1046 34.8294 31 35.934 31V29ZM35.934 18.0713H42.9916V14.0713H35.934V18.0713ZM40.9916 16.0713V18.4795H44.9916V16.0713H40.9916ZM42.9916 16.4795H38.3773V20.4795H42.9916V16.4795ZM36.3773 18.4795V20.8174H40.3773V18.4795H36.3773ZM38.3773 22.8174H42.9916V18.8174H38.3773V22.8174ZM40.9916 20.8174V23.1816H44.9916V20.8174H40.9916ZM42.9916 21.1816H38.3773V25.1816H42.9916V21.1816ZM36.3773 23.1816V26.583H40.3773V23.1816H36.3773ZM38.3773 28.583H42.9916V24.583H38.3773V28.583ZM40.9916 26.583V29H44.9916V26.583H40.9916ZM42.9916 27H35.934V31H42.9916V27ZM37.934 29V16.0713H33.934V29H37.934ZM45.4613 16.0713V14.0713C44.3567 14.0713 43.4613 14.9667 43.4613 16.0713H45.4613ZM51.1215 16.458L50.3358 18.2972C50.3429 18.3003 50.3501 18.3033 50.3573 18.3063L51.1215 16.458ZM52.5277 21.96L50.9002 20.7975L50.898 20.8007L52.5277 21.96ZM50.6908 23.252L50.0181 21.3685C49.4708 21.564 49.0355 21.9879 48.8257 22.5299C48.6159 23.0719 48.6522 23.6784 48.9252 24.1914L50.6908 23.252ZM53.7494 29V31C54.4516 31 55.1023 30.6318 55.4639 30.0298C55.8254 29.4279 55.8448 28.6804 55.515 28.0605L53.7494 29ZM51.0599 29L49.2937 29.9384C49.6408 30.5917 50.3202 31 51.0599 31V29ZM48.1508 23.5244L49.917 22.586C49.5699 21.9328 48.8905 21.5244 48.1508 21.5244V23.5244ZM47.9222 23.5244V21.5244C46.8177 21.5244 45.9222 22.4198 45.9222 23.5244H47.9222ZM47.9222 29V31C49.0268 31 49.9222 30.1046 49.9222 29H47.9222ZM45.4613 29H43.4613C43.4613 30.1046 44.3567 31 45.4613 31V29ZM47.9222 21.125H45.9222C45.9222 22.2296 46.8177 23.125 47.9222 23.125V21.125ZM50.3129 20.8174L49.1812 19.1684C49.1761 19.1719 49.171 19.1754 49.1659 19.1789L50.3129 20.8174ZM50.5414 19.0684L48.8986 20.2092C48.9037 20.2164 48.9088 20.2236 48.9139 20.2308L50.5414 19.0684ZM49.9525 18.6201L49.2405 20.4891C49.2536 20.4941 49.2667 20.4989 49.2798 20.5036L49.9525 18.6201ZM47.9222 18.4795V16.4795C46.8177 16.4795 45.9222 17.3749 45.9222 18.4795H47.9222ZM45.4613 18.0713H48.0717V14.0713H45.4613V18.0713ZM48.0717 18.0713C49.4753 18.0713 50.1349 18.2114 50.3358 18.2972L51.9071 14.6188C50.9009 14.189 49.5273 14.0713 48.0717 14.0713V18.0713ZM50.3573 18.3063C50.558 18.3892 50.7305 18.5228 50.8923 18.7821L54.2862 16.6651C53.7097 15.7409 52.9037 15.0307 51.8856 14.6098L50.3573 18.3063ZM50.8923 18.7821C51.0335 19.0085 51.1429 19.3291 51.1429 19.8242H55.1429C55.1429 18.7021 54.8832 17.6223 54.2862 16.6651L50.8923 18.7821ZM51.1429 19.8242C51.1429 20.3438 51.0221 20.6269 50.9002 20.7975L54.1552 23.1224C54.8536 22.1446 55.1429 21.0038 55.1429 19.8242H51.1429ZM50.898 20.8007C50.7843 20.9605 50.5494 21.1787 50.0181 21.3685L51.3635 25.1354C52.4728 24.7393 53.4625 24.0962 54.1574 23.1193L50.898 20.8007ZM48.9252 24.1914L51.9838 29.9395L55.515 28.0605L52.4564 22.3125L48.9252 24.1914ZM53.7494 27H51.0599V31H53.7494V27ZM52.8261 28.0616L49.917 22.586L46.3846 24.4628L49.2937 29.9384L52.8261 28.0616ZM48.1508 21.5244H47.9222V25.5244H48.1508V21.5244ZM45.9222 23.5244V29H49.9222V23.5244H45.9222ZM47.9222 27H45.4613V31H47.9222V27ZM47.4613 29V16.0713H43.4613V29H47.4613ZM47.9222 23.125H48.6957V19.125H47.9222V23.125ZM48.6957 23.125C49.165 23.125 49.6298 23.0952 50.0626 23.0129C50.4761 22.9342 50.9912 22.7839 51.4598 22.4558L49.1659 19.1789C49.2619 19.1118 49.3335 19.0834 49.3534 19.0761C49.3744 19.0683 49.3654 19.0738 49.3151 19.0833C49.2088 19.1035 49.0116 19.125 48.6957 19.125V23.125ZM51.4446 22.4664C52.4501 21.7763 52.7611 20.7053 52.7611 19.7979H48.7611C48.7611 19.8322 48.7549 19.7476 48.8182 19.6037C48.8895 19.4414 49.0157 19.2819 49.1812 19.1684L51.4446 22.4664ZM52.7611 19.7979C52.7611 19.1503 52.5854 18.4891 52.1688 17.9059L48.9139 20.2308C48.8589 20.1538 48.8172 20.0678 48.7912 19.9814C48.7657 19.897 48.7611 19.8318 48.7611 19.7979H52.7611ZM52.1841 17.9276C51.7952 17.3676 51.2568 16.9622 50.6252 16.7366L49.2798 20.5036C49.2209 20.4825 49.1477 20.4464 49.0729 20.3895C48.9978 20.3324 48.9398 20.2684 48.8986 20.2092L52.1841 17.9276ZM50.6645 16.7511C50.0348 16.5112 49.2407 16.4795 48.599 16.4795V20.4795C48.8857 20.4795 49.0888 20.49 49.2229 20.5039C49.2886 20.5108 49.3236 20.517 49.3341 20.5191C49.3481 20.5219 49.3104 20.5157 49.2405 20.4891L50.6645 16.7511ZM48.599 16.4795H47.9222V20.4795H48.599V16.4795ZM45.9222 18.4795V21.125H49.9222V18.4795H45.9222ZM55.5599 16.0713V14.0713C54.4554 14.0713 53.5599 14.9667 53.5599 16.0713H55.5599ZM58.0033 16.0713H60.0033C60.0033 14.9667 59.1079 14.0713 58.0033 14.0713V16.0713ZM58.0033 29V31C59.1079 31 60.0033 30.1046 60.0033 29H58.0033ZM55.5599 29H53.5599C53.5599 30.1046 54.4554 31 55.5599 31V29ZM55.5599 18.0713H58.0033V14.0713H55.5599V18.0713ZM56.0033 16.0713V29H60.0033V16.0713H56.0033ZM58.0033 27H55.5599V31H58.0033V27ZM57.5599 29V16.0713H53.5599V29H57.5599ZM72.6635 18.3477L74.0441 19.7947C74.8139 19.0602 74.8739 17.8514 74.1805 17.0443L72.6635 18.3477ZM70.9408 19.9912L69.4893 21.3671C69.8549 21.7529 70.3592 21.9772 70.8905 21.9906C71.4219 22.0039 71.9368 21.8052 72.3214 21.4383L70.9408 19.9912ZM63.8568 19.4023L62.4475 17.9832L62.4426 17.9881L63.8568 19.4023ZM68.9896 26.5654L69.8036 28.3923C69.8086 28.3901 69.8136 28.3878 69.8186 28.3855L68.9896 26.5654ZM70.9408 25.1064L72.3839 23.7217C72.0126 23.3348 71.5017 23.1132 70.9656 23.1066C70.4295 23.1 69.9131 23.3088 69.5325 23.6864L70.9408 25.1064ZM72.6107 26.8467L74.0073 28.2784C74.7934 27.5115 74.8141 26.2543 74.0538 25.4619L72.6107 26.8467ZM69.9037 28.7891L70.6792 30.6326L70.69 30.628L69.9037 28.7891ZM62.0551 27.418L60.6408 28.8322L60.6473 28.8387L62.0551 27.418ZM61.0092 19.0771L59.2827 18.0675L59.2783 18.0751L61.0092 19.0771ZM63.514 16.6602L62.538 14.9145L62.534 14.9168L63.514 16.6602ZM70.1058 16.4229L69.2725 18.241L69.2766 18.2428L70.1058 16.4229ZM71.2829 16.9006L69.5602 18.5442L72.3214 21.4383L74.0441 19.7947L71.2829 16.9006ZM72.3923 18.6153C70.9099 17.0513 69.09 16.1367 66.9857 16.1367V20.1367C67.8111 20.1367 68.628 20.4584 69.4893 21.3671L72.3923 18.6153ZM66.9857 16.1367C65.2405 16.1367 63.6852 16.7541 62.4475 17.9832L65.2661 20.8214C65.7277 20.3631 66.2583 20.1367 66.9857 20.1367V16.1367ZM62.4426 17.9881C61.2089 19.2218 60.5912 20.7771 60.5912 22.5225H64.5912C64.5912 21.7952 64.8172 21.2704 65.271 20.8166L62.4426 17.9881ZM60.5912 22.5225C60.5912 23.6833 60.8468 24.7928 61.4097 25.7955L64.8977 23.8373C64.7106 23.5041 64.5912 23.0843 64.5912 22.5225H60.5912ZM61.4097 25.7955C61.9706 26.7945 62.7719 27.5817 63.7732 28.138L65.7158 24.6413C65.346 24.4359 65.0868 24.1743 64.8977 23.8373L61.4097 25.7955ZM63.7732 28.138C64.7762 28.6952 65.8759 28.9609 67.0297 28.9609V24.9609C66.5077 24.9609 66.0839 24.8459 65.7158 24.6413L63.7732 28.138ZM67.0297 28.9609C67.9958 28.9609 68.9302 28.7814 69.8036 28.3923L68.1757 24.7386C67.8654 24.8768 67.4932 24.9609 67.0297 24.9609V28.9609ZM69.8186 28.3855C70.7089 27.9801 71.5524 27.3166 72.3491 26.5265L69.5325 23.6864C68.9112 24.3025 68.454 24.6117 68.1607 24.7453L69.8186 28.3855ZM69.4977 26.4912L71.1677 28.2314L74.0538 25.4619L72.3839 23.7217L69.4977 26.4912ZM71.2142 25.415C70.3639 26.2444 69.6634 26.7166 69.1174 26.9501L70.69 30.628C71.8432 30.1349 72.9474 29.3122 74.0073 28.2784L71.2142 25.415ZM69.1281 26.9456C68.5646 27.1826 67.8658 27.3252 66.9945 27.3252V31.3252C68.3029 31.3252 69.5436 31.1103 70.6792 30.6326L69.1281 26.9456ZM66.9945 27.3252C65.4471 27.3252 64.3277 26.8544 63.4628 25.9973L60.6473 28.8387C62.3488 30.5246 64.5224 31.3252 66.9945 31.3252V27.3252ZM63.4693 26.0038C62.6073 25.1418 62.139 24.0353 62.139 22.5137H58.139C58.139 24.9764 58.9481 27.1394 60.6408 28.8322L63.4693 26.0038ZM62.139 22.5137C62.139 21.5356 62.3556 20.7431 62.74 20.0792L59.2783 18.0751C58.5025 19.4151 58.139 20.9136 58.139 22.5137H62.139ZM62.7356 20.0868C63.1295 19.4132 63.6968 18.8518 64.4941 18.4036L62.534 14.9168C61.1633 15.6873 60.0607 16.7372 59.2827 18.0675L62.7356 20.0868ZM64.4901 18.4058C65.2803 17.964 66.116 17.7461 67.0297 17.7461V13.7461C65.4355 13.7461 63.9274 14.1376 62.538 14.9145L64.4901 18.4058ZM67.0297 17.7461C67.8039 17.7461 68.5455 17.9077 69.2725 18.241L70.9391 14.6047C69.6975 14.0356 68.3882 13.7461 67.0297 13.7461V17.7461ZM69.2766 18.2428C70.0006 18.5727 70.6191 19.0372 71.1464 19.651L74.1805 17.0443C73.2781 15.9941 72.1915 15.1753 70.9351 14.6029L69.2766 18.2428ZM78.7631 16.0713V14.0713C77.9361 14.0713 77.1943 14.5803 76.8969 15.352L78.7631 16.0713ZM81.2592 16.0713L83.1257 15.3531C82.8286 14.5808 82.0866 14.0713 81.2592 14.0713V16.0713ZM86.2338 29V31C86.8927 31 87.5094 30.6754 87.8825 30.1322C88.2555 29.5889 88.337 28.8968 88.1004 28.2818L86.2338 29ZM83.6761 29L81.8063 29.7097C82.1011 30.4864 82.8454 31 83.6761 31V29ZM82.6654 26.3369L84.5353 25.6272C84.2405 24.8505 83.4962 24.3369 82.6654 24.3369V26.3369ZM77.392 26.3369V24.3369C76.5717 24.3369 75.8345 24.8378 75.5325 25.6005L77.392 26.3369ZM76.3373 29V31C77.1576 31 77.8947 30.4991 78.1968 29.7364L76.3373 29ZM73.7797 29L71.9135 28.2807C71.6764 28.8958 71.7576 29.5882 72.1306 30.1317C72.5036 30.6752 73.1205 31 73.7797 31V29ZM80.0287 19.499L81.8944 18.7786C81.5969 18.0081 80.8564 17.4997 80.0304 17.499C79.2045 17.4983 78.463 18.0054 78.1642 18.7754L80.0287 19.499ZM78.306 23.9375L76.4415 23.2139C76.2027 23.8291 76.2829 24.5226 76.6557 25.0673C77.0285 25.6119 77.646 25.9375 78.306 25.9375V23.9375ZM81.7426 23.9375V25.9375C82.402 25.9375 83.019 25.6125 83.3919 25.0687C83.7649 24.5249 83.8458 23.8322 83.6083 23.2171L81.7426 23.9375ZM78.7631 18.0713H81.2592V14.0713H78.7631V18.0713ZM79.3926 16.7895L84.3672 29.7182L88.1004 28.2818L83.1257 15.3531L79.3926 16.7895ZM86.2338 27H83.6761V31H86.2338V27ZM85.546 28.2903L84.5353 25.6272L80.7956 27.0466L81.8063 29.7097L85.546 28.2903ZM82.6654 24.3369H77.392V28.3369H82.6654V24.3369ZM75.5325 25.6005L74.4778 28.2636L78.1968 29.7364L79.2514 27.0733L75.5325 25.6005ZM76.3373 27H73.7797V31H76.3373V27ZM75.6458 29.7193L80.6292 16.7906L76.8969 15.352L71.9135 28.2807L75.6458 29.7193ZM78.1642 18.7754L76.4415 23.2139L80.1705 24.6611L81.8932 20.2227L78.1642 18.7754ZM78.306 25.9375H81.7426V21.9375H78.306V25.9375ZM83.6083 23.2171L81.8944 18.7786L78.1629 20.2195L79.8768 24.6579L83.6083 23.2171ZM88.1586 16.0713V14.0713C87.054 14.0713 86.1586 14.9667 86.1586 16.0713H88.1586ZM90.514 16.0713L92.1895 14.9791C91.8203 14.4128 91.1901 14.0713 90.514 14.0713V16.0713ZM96.0599 24.5791L94.3845 25.6713C94.8678 26.4128 95.7811 26.7484 96.6296 26.4963C97.4781 26.2441 98.0599 25.4643 98.0599 24.5791H96.0599ZM96.0599 16.0713V14.0713C94.9554 14.0713 94.0599 14.9667 94.0599 16.0713H96.0599ZM98.5209 16.0713H100.521C100.521 14.9667 99.6254 14.0713 98.5209 14.0713V16.0713ZM98.5209 29V31C99.6254 31 100.521 30.1046 100.521 29H98.5209ZM96.1566 29L94.4819 30.0933C94.8512 30.659 95.4811 31 96.1566 31V29ZM90.6195 20.5186L92.2942 19.4252C91.8105 18.6843 90.8973 18.3493 90.0492 18.6016C89.201 18.854 88.6195 19.6337 88.6195 20.5186H90.6195ZM90.6195 29V31C91.7241 31 92.6195 30.1046 92.6195 29H90.6195ZM88.1586 29H86.1586C86.1586 30.1046 87.054 31 88.1586 31V29ZM88.1586 18.0713H90.514V14.0713H88.1586V18.0713ZM88.8386 17.1635L94.3845 25.6713L97.7354 23.4869L92.1895 14.9791L88.8386 17.1635ZM98.0599 24.5791V16.0713H94.0599V24.5791H98.0599ZM96.0599 18.0713H98.5209V14.0713H96.0599V18.0713ZM96.5209 16.0713V29H100.521V16.0713H96.5209ZM98.5209 27H96.1566V31H98.5209V27ZM97.8313 27.9067L92.2942 19.4252L88.9448 21.6119L94.4819 30.0933L97.8313 27.9067ZM88.6195 20.5186V29H92.6195V20.5186H88.6195ZM90.6195 27H88.1586V31H90.6195V27ZM90.1586 29V16.0713H86.1586V29H90.1586ZM31.223 38.0713V36.0713C30.1185 36.0713 29.223 36.9667 29.223 38.0713H31.223ZM38.2806 38.0713H40.2806C40.2806 36.9667 39.3852 36.0713 38.2806 36.0713V38.0713ZM38.2806 40.4795V42.4795C39.3852 42.4795 40.2806 41.5841 40.2806 40.4795H38.2806ZM33.6664 40.4795V38.4795C32.5618 38.4795 31.6664 39.3749 31.6664 40.4795H33.6664ZM33.6664 42.8174H31.6664C31.6664 43.922 32.5618 44.8174 33.6664 44.8174V42.8174ZM38.2806 42.8174H40.2806C40.2806 41.7128 39.3852 40.8174 38.2806 40.8174V42.8174ZM38.2806 45.1816V47.1816C39.3852 47.1816 40.2806 46.2862 40.2806 45.1816H38.2806ZM33.6664 45.1816V43.1816C32.5618 43.1816 31.6664 44.0771 31.6664 45.1816H33.6664ZM33.6664 48.583H31.6664C31.6664 49.6876 32.5618 50.583 33.6664 50.583V48.583ZM38.2806 48.583H40.2806C40.2806 47.4784 39.3852 46.583 38.2806 46.583V48.583ZM38.2806 51V53C39.3852 53 40.2806 52.1046 40.2806 51H38.2806ZM31.223 51H29.223C29.223 52.1046 30.1185 53 31.223 53V51ZM31.223 40.0713H38.2806V36.0713H31.223V40.0713ZM36.2806 38.0713V40.4795H40.2806V38.0713H36.2806ZM38.2806 38.4795H33.6664V42.4795H38.2806V38.4795ZM31.6664 40.4795V42.8174H35.6664V40.4795H31.6664ZM33.6664 44.8174H38.2806V40.8174H33.6664V44.8174ZM36.2806 42.8174V45.1816H40.2806V42.8174H36.2806ZM38.2806 43.1816H33.6664V47.1816H38.2806V43.1816ZM31.6664 45.1816V48.583H35.6664V45.1816H31.6664ZM33.6664 50.583H38.2806V46.583H33.6664V50.583ZM36.2806 48.583V51H40.2806V48.583H36.2806ZM38.2806 49H31.223V53H38.2806V49ZM33.223 51V38.0713H29.223V51H33.223ZM39.7396 38.0713V36.0713C39.0051 36.0713 38.3296 36.4739 37.9803 37.1201C37.6309 37.7663 37.6639 38.5519 38.0662 39.1665L39.7396 38.0713ZM42.5082 38.0713L44.1821 36.9767C43.8126 36.4118 43.1832 36.0713 42.5082 36.0713V38.0713ZM45.2152 42.2109L43.5413 43.3055C43.9099 43.8691 44.5373 44.2094 45.2108 44.2109C45.8842 44.2124 46.5131 43.8749 46.8842 43.313L45.2152 42.2109ZM47.9486 38.0713V36.0713C47.2768 36.0713 46.6498 36.4086 46.2796 36.9693L47.9486 38.0713ZM50.7172 38.0713L52.3885 39.1698C52.7923 38.5554 52.8265 37.769 52.4774 37.1218C52.1284 36.4747 51.4524 36.0713 50.7172 36.0713V38.0713ZM46.6039 44.3291L44.9326 43.2306C44.495 43.8963 44.4943 44.7582 44.9307 45.4247L46.6039 44.3291ZM50.972 51V53C51.7067 53 52.3822 52.5973 52.7315 51.951C53.0808 51.3047 53.0477 50.519 52.6452 49.9044L50.972 51ZM48.2035 51L46.5325 52.0989C46.9023 52.6614 47.5303 53 48.2035 53V51ZM45.2152 46.4561L46.8862 45.3571C46.5156 44.7935 45.8857 44.4547 45.2111 44.4561C44.5366 44.4574 43.9081 44.7988 43.5397 45.3639L45.2152 46.4561ZM42.2533 51V53C42.9293 53 43.5596 52.6585 43.9288 52.0921L42.2533 51ZM39.4672 51L37.794 49.9044C37.3915 50.519 37.3584 51.3047 37.7077 51.951C38.057 52.5973 38.7325 53 39.4672 53V51ZM43.8353 44.3291L45.5085 45.4247C45.9442 44.7594 45.9443 43.8992 45.5088 43.2338L43.8353 44.3291ZM39.7396 40.0713H42.5082V36.0713H39.7396V40.0713ZM40.8343 39.1659L43.5413 43.3055L46.8891 41.1163L44.1821 36.9767L40.8343 39.1659ZM46.8842 43.313L49.6176 39.1733L46.2796 36.9693L43.5462 41.1089L46.8842 43.313ZM47.9486 40.0713H50.7172V36.0713H47.9486V40.0713ZM49.0459 36.9727L44.9326 43.2306L48.2752 45.4276L52.3885 39.1698L49.0459 36.9727ZM44.9307 45.4247L49.2988 52.0956L52.6452 49.9044L48.2771 43.2335L44.9307 45.4247ZM50.972 49H48.2035V53H50.972V49ZM49.8745 49.9011L46.8862 45.3571L43.5442 47.555L46.5325 52.0989L49.8745 49.9011ZM43.5397 45.3639L40.5778 49.9079L43.9288 52.0921L46.8907 47.5482L43.5397 45.3639ZM42.2533 49H39.4672V53H42.2533V49ZM41.1404 52.0956L45.5085 45.4247L42.1621 43.2335L37.794 49.9044L41.1404 52.0956ZM45.5088 43.2338L41.4131 36.976L38.0662 39.1665L42.1619 45.4244L45.5088 43.2338ZM52.8265 38.0713V36.0713C51.722 36.0713 50.8265 36.9667 50.8265 38.0713H52.8265ZM58.4867 38.4668L57.7051 40.3078C57.7121 40.3107 57.7191 40.3136 57.7261 40.3165L58.4867 38.4668ZM59.9633 39.7324L58.2558 40.7739C58.2599 40.7806 58.2641 40.7873 58.2682 40.794L59.9633 39.7324ZM59.7963 44.0742L58.23 42.8304L58.2226 42.8399L59.7963 44.0742ZM57.8802 45.3223L58.4266 47.2462L58.437 47.2432L57.8802 45.3223ZM55.2875 45.5244V43.5244C54.1829 43.5244 53.2875 44.4198 53.2875 45.5244H55.2875ZM55.2875 51V53C56.392 53 57.2875 52.1046 57.2875 51H55.2875ZM52.8265 51H50.8265C50.8265 52.1046 51.722 53 52.8265 53V51ZM55.2875 43.125H53.2875C53.2875 44.2296 54.1829 45.125 55.2875 45.125V43.125ZM57.9154 42.5625L56.2659 41.4314L56.2588 41.4419L57.9154 42.5625ZM57.5463 40.7344L56.512 42.4462C56.5176 42.4496 56.5232 42.4529 56.5288 42.4562L57.5463 40.7344ZM55.2875 40.4795V38.4795C54.1829 38.4795 53.2875 39.3749 53.2875 40.4795H55.2875ZM52.8265 40.0713H55.4369V36.0713H52.8265V40.0713ZM55.4369 40.0713C56.81 40.0713 57.4792 40.2118 57.7051 40.3078L59.2682 36.6258C58.252 36.1944 56.888 36.0713 55.4369 36.0713V40.0713ZM57.7261 40.3165C57.9542 40.4103 58.117 40.5464 58.2558 40.7739L61.6707 38.6909C61.0946 37.7466 60.2731 37.0389 59.2473 36.6171L57.7261 40.3165ZM58.2682 40.794C58.3971 40.9998 58.5082 41.3131 58.5082 41.8242H62.5082C62.5082 40.7064 62.2559 39.6252 61.6583 38.6709L58.2682 40.794ZM58.5082 41.8242C58.5082 42.3606 58.3747 42.6482 58.23 42.8305L61.3625 45.318C62.167 44.3049 62.5082 43.0925 62.5082 41.8242H58.5082ZM58.2226 42.8399C58.0404 43.0722 57.7752 43.2704 57.3235 43.4013L58.437 47.2432C59.6025 46.9054 60.6147 46.2715 61.37 45.3085L58.2226 42.8399ZM57.3339 43.3983C57.1597 43.4478 56.5549 43.5244 55.2875 43.5244V47.5244C56.5279 47.5244 57.6516 47.4662 58.4266 47.2462L57.3339 43.3983ZM53.2875 45.5244V51H57.2875V45.5244H53.2875ZM55.2875 49H52.8265V53H55.2875V49ZM54.8265 51V38.0713H50.8265V51H54.8265ZM55.2875 45.125H56.0697V41.125H55.2875V45.125ZM56.0697 45.125C56.6812 45.125 57.4324 45.0937 58.0401 44.8714L56.6657 41.1149C56.7292 41.0917 56.763 41.0862 56.7503 41.0887C56.7406 41.0906 56.7082 41.0963 56.6475 41.1025C56.5236 41.1153 56.3354 41.125 56.0697 41.125V45.125ZM58.0401 44.8714C58.6484 44.6488 59.1863 44.2532 59.572 43.6831L56.2588 41.4419C56.31 41.3663 56.3773 41.2933 56.4579 41.2316C56.5375 41.1706 56.6117 41.1347 56.6657 41.1149L58.0401 44.8714ZM59.5649 43.6936C59.9677 43.1061 60.1263 42.4508 60.1263 41.8242H56.1263C56.1263 41.8042 56.1289 41.7505 56.1506 41.6747C56.1729 41.5965 56.2107 41.512 56.2659 41.4314L59.5649 43.6936ZM60.1263 41.8242C60.1263 40.7115 59.6351 39.6456 58.5637 39.0125L56.5288 42.4562C56.4356 42.4012 56.3075 42.2902 56.2158 42.1179C56.1293 41.9554 56.1263 41.8346 56.1263 41.8242H60.1263ZM58.5805 39.0225C58.1288 38.7496 57.6439 38.6308 57.2658 38.5692C56.8636 38.5037 56.4277 38.4795 55.9818 38.4795V42.4795C56.2976 42.4795 56.5033 42.4978 56.6226 42.5172C56.6799 42.5265 56.6973 42.533 56.685 42.5291C56.675 42.5259 56.6081 42.5043 56.512 42.4462L58.5805 39.0225ZM55.9818 38.4795H55.2875V42.4795H55.9818V38.4795ZM53.2875 40.4795V43.125H57.2875V40.4795H53.2875ZM63.0922 38.0713V36.0713C61.9876 36.0713 61.0922 36.9667 61.0922 38.0713H63.0922ZM68.7523 38.458L67.9666 40.2972C67.9738 40.3003 67.981 40.3033 67.9881 40.3063L68.7523 38.458ZM70.1586 43.96L68.5311 42.7975L68.5288 42.8007L70.1586 43.96ZM68.3217 45.252L67.649 43.3685C67.1016 43.564 66.6664 43.9879 66.4566 44.5299C66.2467 45.0719 66.283 45.6784 66.5561 46.1914L68.3217 45.252ZM71.3802 51V53C72.0824 53 72.7332 52.6318 73.0947 52.0298C73.4563 51.4279 73.4757 50.6804 73.1459 50.0605L71.3802 51ZM68.6908 51L66.9246 51.9384C67.2717 52.5917 67.951 53 68.6908 53V51ZM65.7816 45.5244L67.5478 44.586C67.2007 43.9328 66.5214 43.5244 65.7816 43.5244V45.5244ZM65.5531 45.5244V43.5244C64.4485 43.5244 63.5531 44.4198 63.5531 45.5244H65.5531ZM65.5531 51V53C66.6577 53 67.5531 52.1046 67.5531 51H65.5531ZM63.0922 51H61.0922C61.0922 52.1046 61.9876 53 63.0922 53V51ZM65.5531 43.125H63.5531C63.5531 44.2296 64.4485 45.125 65.5531 45.125V43.125ZM67.9437 42.8174L66.812 41.1684C66.8069 41.1719 66.8019 41.1754 66.7968 41.1789L67.9437 42.8174ZM68.1722 41.0684L66.5295 42.2092C66.5345 42.2164 66.5396 42.2236 66.5448 42.2308L68.1722 41.0684ZM67.5834 40.6201L66.8714 42.4891C66.8844 42.4941 66.8975 42.4989 66.9107 42.5036L67.5834 40.6201ZM65.5531 40.4795V38.4795C64.4485 38.4795 63.5531 39.3749 63.5531 40.4795H65.5531ZM63.0922 40.0713H65.7025V36.0713H63.0922V40.0713ZM65.7025 40.0713C67.1062 40.0713 67.7658 40.2114 67.9666 40.2972L69.538 36.6188C68.5318 36.189 67.1582 36.0713 65.7025 36.0713V40.0713ZM67.9881 40.3063C68.1888 40.3892 68.3614 40.5228 68.5232 40.7821L71.917 38.6651C71.3405 37.7409 70.5346 37.0307 69.5165 36.6098L67.9881 40.3063ZM68.5232 40.7821C68.6644 41.0085 68.7738 41.3291 68.7738 41.8242H72.7738C72.7738 40.7021 72.5141 39.6223 71.917 38.6651L68.5232 40.7821ZM68.7738 41.8242C68.7738 42.3438 68.6529 42.6269 68.5311 42.7975L71.786 45.1224C72.4845 44.1446 72.7738 43.0038 72.7738 41.8242H68.7738ZM68.5288 42.8007C68.4151 42.9605 68.1803 43.1787 67.649 43.3685L68.9943 47.1354C70.1036 46.7393 71.0934 46.0962 71.7883 45.1193L68.5288 42.8007ZM66.5561 46.1914L69.6146 51.9395L73.1459 50.0605L70.0873 44.3125L66.5561 46.1914ZM71.3802 49H68.6908V53H71.3802V49ZM70.457 50.0616L67.5478 44.586L64.0154 46.4628L66.9246 51.9384L70.457 50.0616ZM65.7816 43.5244H65.5531V47.5244H65.7816V43.5244ZM63.5531 45.5244V51H67.5531V45.5244H63.5531ZM65.5531 49H63.0922V53H65.5531V49ZM65.0922 51V38.0713H61.0922V51H65.0922ZM65.5531 45.125H66.3265V41.125H65.5531V45.125ZM66.3265 45.125C66.7958 45.125 67.2606 45.0952 67.6934 45.0129C68.107 44.9342 68.6221 44.7839 69.0907 44.4558L66.7968 41.1789C66.8927 41.1118 66.9644 41.0834 66.9843 41.0761C67.0052 41.0683 66.9963 41.0738 66.946 41.0833C66.8397 41.1035 66.6424 41.125 66.3265 41.125V45.125ZM69.0754 44.4664C70.081 43.7763 70.392 42.7053 70.392 41.7979H66.392C66.392 41.8322 66.3858 41.7476 66.449 41.6037C66.5204 41.4414 66.6466 41.2819 66.812 41.1684L69.0754 44.4664ZM70.392 41.7979C70.392 41.1503 70.2163 40.4891 69.7997 39.9059L66.5448 42.2308C66.4898 42.1538 66.4481 42.0678 66.422 41.9814C66.3966 41.897 66.392 41.8318 66.392 41.7979H70.392ZM69.815 39.9276C69.4261 39.3676 68.8877 38.9622 68.256 38.7366L66.9107 42.5036C66.8518 42.4825 66.7786 42.4464 66.7038 42.3895C66.6287 42.3324 66.5707 42.2684 66.5295 42.2092L69.815 39.9276ZM68.2954 38.7511C67.6656 38.5112 66.8716 38.4795 66.2299 38.4795V42.4795C66.5165 42.4795 66.7197 42.49 66.8537 42.5039C66.9195 42.5108 66.9544 42.517 66.965 42.5191C66.979 42.5219 66.9412 42.5157 66.8714 42.4891L68.2954 38.7511ZM66.2299 38.4795H65.5531V42.4795H66.2299V38.4795ZM63.5531 40.4795V43.125H67.5531V40.4795H63.5531ZM73.3754 38.0713V36.0713C72.2708 36.0713 71.3754 36.9667 71.3754 38.0713H73.3754ZM80.433 38.0713H82.433C82.433 36.9667 81.5376 36.0713 80.433 36.0713V38.0713ZM80.433 40.4795V42.4795C81.5376 42.4795 82.433 41.5841 82.433 40.4795H80.433ZM75.8187 40.4795V38.4795C74.7142 38.4795 73.8187 39.3749 73.8187 40.4795H75.8187ZM75.8187 42.8174H73.8187C73.8187 43.922 74.7142 44.8174 75.8187 44.8174V42.8174ZM80.433 42.8174H82.433C82.433 41.7128 81.5376 40.8174 80.433 40.8174V42.8174ZM80.433 45.1816V47.1816C81.5376 47.1816 82.433 46.2862 82.433 45.1816H80.433ZM75.8187 45.1816V43.1816C74.7142 43.1816 73.8187 44.0771 73.8187 45.1816H75.8187ZM75.8187 48.583H73.8187C73.8187 49.6876 74.7142 50.583 75.8187 50.583V48.583ZM80.433 48.583H82.433C82.433 47.4784 81.5376 46.583 80.433 46.583V48.583ZM80.433 51V53C81.5376 53 82.433 52.1046 82.433 51H80.433ZM73.3754 51H71.3754C71.3754 52.1046 72.2708 53 73.3754 53V51ZM73.3754 40.0713H80.433V36.0713H73.3754V40.0713ZM78.433 38.0713V40.4795H82.433V38.0713H78.433ZM80.433 38.4795H75.8187V42.4795H80.433V38.4795ZM73.8187 40.4795V42.8174H77.8187V40.4795H73.8187ZM75.8187 44.8174H80.433V40.8174H75.8187V44.8174ZM78.433 42.8174V45.1816H82.433V42.8174H78.433ZM80.433 43.1816H75.8187V47.1816H80.433V43.1816ZM73.8187 45.1816V48.583H77.8187V45.1816H73.8187ZM75.8187 50.583H80.433V46.583H75.8187V50.583ZM78.433 48.583V51H82.433V48.583H78.433ZM80.433 49H73.3754V53H80.433V49ZM75.3754 51V38.0713H71.3754V51H75.3754ZM89.5121 39.8291L90.8368 41.3275C91.6561 40.6032 91.7417 39.3551 91.029 38.5257L89.5121 39.8291ZM87.6927 41.4375L86.0675 42.603C86.3972 43.0628 86.9062 43.3614 87.4685 43.4249C88.0307 43.4883 88.5935 43.3107 89.0174 42.9359L87.6927 41.4375ZM84.9506 40.3652L86.2266 41.9053C86.2352 41.8982 86.2437 41.891 86.2521 41.8837L84.9506 40.3652ZM84.8627 41.5605L83.2685 42.7683C83.2723 42.7733 83.2762 42.7784 83.2801 42.7834L84.8627 41.5605ZM86.6644 43.2217L85.3709 44.7471L85.3803 44.755L86.6644 43.2217ZM88.3695 44.707L86.9349 46.1006C86.939 46.1047 86.943 46.1089 86.947 46.113L88.3695 44.707ZM89.4242 46.1572L87.5956 46.9674C87.5998 46.9767 87.604 46.986 87.6083 46.9953L89.4242 46.1572ZM83.3685 50.6484L82.2624 52.3148L82.269 52.3191L83.3685 50.6484ZM81.6195 48.5215L80.5852 46.8097C79.6912 47.3499 79.3634 48.4871 79.8328 49.4202L81.6195 48.5215ZM83.6849 47.2734L85.4421 46.3183C85.1812 45.8383 84.7354 45.486 84.2081 45.3431C83.6809 45.2002 83.1181 45.2792 82.6506 45.5617L83.6849 47.2734ZM85.5658 45.542L86.8316 43.9935L86.8309 43.9929L85.5658 45.542ZM82.8412 42.8877L81.1675 43.9826L81.1723 43.9898L82.8412 42.8877ZM83.2455 38.7129L84.615 40.1704L84.6154 40.17L83.2455 38.7129ZM87.6136 38.1943L86.6977 39.9723L86.705 39.976L87.6136 38.1943ZM88.1874 38.3307L86.3681 39.9391L89.0174 42.9359L90.8368 41.3275L88.1874 38.3307ZM89.318 40.272C88.5503 39.2014 87.3788 38.1016 85.7416 38.1016V42.1016C85.5975 42.1016 85.5389 42.0467 85.5961 42.0858C85.6702 42.1366 85.8348 42.2785 86.0675 42.603L89.318 40.272ZM85.7416 38.1016C85.0385 38.1016 84.2837 38.3026 83.649 38.8467L86.2521 41.8837C86.1525 41.9691 86.0409 42.0294 85.9346 42.0648C85.8329 42.0987 85.7618 42.1016 85.7416 42.1016V38.1016ZM83.6745 38.8252C83.1257 39.2799 82.6429 39.9984 82.6429 40.9453H86.6429C86.6429 41.1668 86.587 41.3856 86.4868 41.5747C86.392 41.7535 86.283 41.8585 86.2266 41.9053L83.6745 38.8252ZM82.6429 40.9453C82.6429 41.6497 82.8916 42.2708 83.2685 42.7683L86.4569 40.3528C86.4929 40.4004 86.5421 40.479 86.5814 40.589C86.6215 40.7014 86.6429 40.8234 86.6429 40.9453H82.6429ZM83.2801 42.7834C83.4948 43.0612 83.8106 43.3665 84.1069 43.6396C84.4359 43.943 84.8599 44.3137 85.3709 44.7471L87.9579 41.6963C87.467 41.28 87.0898 40.9491 86.8182 40.6988C86.5139 40.4182 86.4298 40.3177 86.4452 40.3377L83.2801 42.7834ZM85.3803 44.755C85.8444 45.1437 86.2098 45.4544 86.4801 45.6899C86.6153 45.8077 86.7221 45.9026 86.803 45.9764C86.8433 46.0132 86.8746 46.0424 86.8983 46.0649C86.91 46.076 86.9189 46.0847 86.9254 46.0911C86.9286 46.0942 86.931 46.0966 86.9326 46.0983C86.9343 46.0999 86.935 46.1007 86.9349 46.1006L89.8041 43.3135C89.5162 43.0171 88.853 42.4458 87.9486 41.6884L85.3803 44.755ZM86.947 46.113C87.3377 46.5082 87.5194 46.7953 87.5956 46.9674L91.2528 45.3471C90.9188 44.5934 90.3974 43.9137 89.792 43.3011L86.947 46.113ZM87.6083 46.9953C87.6882 47.1685 87.7406 47.3804 87.7406 47.6602H91.7406C91.7406 46.8501 91.5821 46.0601 91.2401 45.3191L87.6083 46.9953ZM87.7406 47.6602C87.7406 48.203 87.5781 48.5421 87.2691 48.8337L90.0149 51.7424C91.1707 50.6513 91.7406 49.2384 91.7406 47.6602H87.7406ZM87.2691 48.8337C86.97 49.116 86.5364 49.3252 85.7767 49.3252V53.3252C87.3725 53.3252 88.8491 52.843 90.0149 51.7424L87.2691 48.8337ZM85.7767 49.3252C85.1987 49.3252 84.7886 49.1887 84.468 48.9778L82.269 52.3191C83.3196 53.0105 84.5149 53.3252 85.7767 53.3252V49.3252ZM84.4746 48.9821C84.1642 48.7761 83.7856 48.377 83.4062 47.6227L79.8328 49.4202C80.426 50.5995 81.2135 51.6184 82.2624 52.3147L84.4746 48.9821ZM82.6538 50.2332L84.7193 48.9852L82.6506 45.5617L80.5852 46.8097L82.6538 50.2332ZM81.9278 48.2286C82.6717 49.5973 83.9113 50.9873 85.8295 50.9873V46.9873C85.8686 46.9873 85.9101 46.9953 85.9428 47.0075C85.9727 47.0187 85.9699 47.0239 85.9355 46.9965C85.8545 46.9318 85.6749 46.7465 85.4421 46.3183L81.9278 48.2286ZM85.8295 50.9873C86.6697 50.9873 87.5025 50.7299 88.1945 50.1367L85.5914 47.0997C85.6364 47.061 85.6947 47.0268 85.7559 47.0056C85.814 46.9854 85.8446 46.9873 85.8295 46.9873V50.9873ZM88.1945 50.1367C88.8399 49.5835 89.3236 48.7751 89.3236 47.7656H85.3236C85.3236 47.6175 85.3595 47.4597 85.4308 47.3187C85.4981 47.1855 85.5715 47.1166 85.5914 47.0997L88.1945 50.1367ZM89.3236 47.7656C89.3236 46.9492 89.0146 46.249 88.6061 45.697L85.3907 48.0764C85.4051 48.0958 85.3877 48.0773 85.3666 48.0202C85.3441 47.9593 85.3236 47.8713 85.3236 47.7656H89.3236ZM88.6061 45.697C88.2215 45.1773 87.5565 44.5861 86.8316 43.9935L84.3 47.0905C84.6481 47.3751 84.9146 47.6067 85.1089 47.789C85.2054 47.8797 85.2768 47.9512 85.3273 48.0052C85.3802 48.0616 85.3963 48.0839 85.3907 48.0764L88.6061 45.697ZM86.8309 43.9929C85.4203 42.841 84.7342 42.1249 84.5101 41.7856L81.1723 43.9898C81.7685 44.8927 82.8988 45.9461 84.3007 47.0911L86.8309 43.9929ZM84.5149 41.7928C84.2732 41.4234 84.226 41.1739 84.226 41.0156H80.226C80.226 42.0995 80.5888 43.0981 81.1675 43.9826L84.5149 41.7928ZM84.226 41.0156C84.226 40.6958 84.3193 40.4483 84.615 40.1704L81.8759 37.2554C80.8123 38.2549 80.226 39.5425 80.226 41.0156H84.226ZM84.6154 40.17C84.9045 39.8983 85.2476 39.7461 85.7767 39.7461V35.7461C84.3019 35.7461 82.9576 36.2384 81.8755 37.2558L84.6154 40.17ZM85.7767 39.7461C86.0985 39.7461 86.3973 39.8175 86.6977 39.9723L88.5296 36.4164C87.6699 35.9735 86.744 35.7461 85.7767 35.7461V39.7461ZM86.705 39.976C86.9632 40.1077 87.3972 40.4366 87.9952 41.1325L91.029 38.5257C90.2676 37.6395 89.436 36.8786 88.5223 36.4127L86.705 39.976ZM98.8812 39.8291L100.206 41.3275C101.025 40.6032 101.111 39.3551 100.398 38.5257L98.8812 39.8291ZM97.0619 41.4375L95.4366 42.603C95.7663 43.0628 96.2754 43.3614 96.8376 43.4249C97.3999 43.4883 97.9627 43.3107 98.3866 42.9359L97.0619 41.4375ZM94.3197 40.3652L95.5957 41.9053C95.6043 41.8982 95.6128 41.891 95.6213 41.8837L94.3197 40.3652ZM94.2318 41.5605L92.6376 42.7683C92.6415 42.7733 92.6453 42.7784 92.6492 42.7834L94.2318 41.5605ZM96.0336 43.2217L94.7401 44.7471L94.7494 44.755L96.0336 43.2217ZM97.7386 44.707L96.3041 46.1006C96.3081 46.1047 96.3121 46.1089 96.3162 46.113L97.7386 44.707ZM98.7933 46.1572L96.9648 46.9674C96.9689 46.9767 96.9731 46.986 96.9774 46.9953L98.7933 46.1572ZM92.7377 50.6484L91.6316 52.3148L91.6382 52.3191L92.7377 50.6484ZM90.9886 48.5215L89.9543 46.8097C89.0603 47.3499 88.7326 48.4871 89.202 49.4202L90.9886 48.5215ZM93.0541 47.2734L94.8112 46.3183C94.5504 45.8383 94.1045 45.486 93.5773 45.3431C93.05 45.2002 92.4873 45.2792 92.0197 45.5617L93.0541 47.2734ZM94.9349 45.542L96.2007 43.9935L96.2 43.9929L94.9349 45.542ZM92.2103 42.8877L90.5366 43.9826L90.5414 43.9898L92.2103 42.8877ZM92.6146 38.7129L93.9842 40.1704L93.9846 40.17L92.6146 38.7129ZM96.9828 38.1943L96.0669 39.9723L96.0741 39.976L96.9828 38.1943ZM97.5565 38.3307L95.7372 39.9391L98.3866 42.9359L100.206 41.3275L97.5565 38.3307ZM98.6872 40.272C97.9194 39.2014 96.7479 38.1016 95.1107 38.1016V42.1016C94.9666 42.1016 94.9081 42.0467 94.9652 42.0858C95.0394 42.1366 95.2039 42.2785 95.4366 42.603L98.6872 40.272ZM95.1107 38.1016C94.4077 38.1016 93.6529 38.3026 93.0181 38.8467L95.6213 41.8837C95.5217 41.9691 95.4101 42.0294 95.3037 42.0648C95.202 42.0987 95.131 42.1016 95.1107 42.1016V38.1016ZM93.0437 38.8252C92.4948 39.2799 92.0121 39.9984 92.0121 40.9453H96.0121C96.0121 41.1668 95.9562 41.3856 95.8559 41.5747C95.7611 41.7535 95.6521 41.8585 95.5957 41.9053L93.0437 38.8252ZM92.0121 40.9453C92.0121 41.6497 92.2608 42.2708 92.6376 42.7683L95.826 40.3528C95.862 40.4004 95.9112 40.479 95.9505 40.589C95.9906 40.7014 96.0121 40.8234 96.0121 40.9453H92.0121ZM92.6492 42.7834C92.8639 43.0612 93.1797 43.3665 93.476 43.6396C93.805 43.943 94.229 44.3137 94.7401 44.7471L97.3271 41.6963C96.8362 41.28 96.4589 40.9491 96.1873 40.6988C95.883 40.4182 95.7989 40.3177 95.8144 40.3377L92.6492 42.7834ZM94.7494 44.755C95.2135 45.1437 95.5789 45.4544 95.8493 45.6899C95.9845 45.8077 96.0912 45.9026 96.1721 45.9764C96.2124 46.0132 96.2438 46.0424 96.2674 46.0649C96.2791 46.076 96.288 46.0847 96.2945 46.0911C96.2977 46.0942 96.3001 46.0966 96.3018 46.0983C96.3034 46.0999 96.3042 46.1007 96.3041 46.1006L99.1732 43.3135C98.8853 43.0171 98.2221 42.4458 97.3177 41.6884L94.7494 44.755ZM96.3162 46.113C96.7068 46.5082 96.8885 46.7953 96.9648 46.9674L100.622 45.3471C100.288 44.5934 99.7666 43.9137 99.1611 43.3011L96.3162 46.113ZM96.9774 46.9953C97.0573 47.1685 97.1097 47.3804 97.1097 47.6602H101.11C101.11 46.8501 100.951 46.0601 100.609 45.3191L96.9774 46.9953ZM97.1097 47.6602C97.1097 48.203 96.9472 48.5421 96.6382 48.8337L99.384 51.7424C100.54 50.6513 101.11 49.2384 101.11 47.6602H97.1097ZM96.6382 48.8337C96.3392 49.116 95.9055 49.3252 95.1459 49.3252V53.3252C96.7417 53.3252 98.2182 52.843 99.384 51.7424L96.6382 48.8337ZM95.1459 49.3252C94.5679 49.3252 94.1577 49.1887 93.8372 48.9778L91.6382 52.3191C92.6887 53.0105 93.884 53.3252 95.1459 53.3252V49.3252ZM93.8438 48.9821C93.5334 48.7761 93.1548 48.377 92.7753 47.6227L89.202 49.4202C89.7952 50.5995 90.5826 51.6184 91.6316 52.3147L93.8438 48.9821ZM92.023 50.2332L94.0884 48.9852L92.0197 45.5617L89.9543 46.8097L92.023 50.2332ZM91.2969 48.2286C92.0409 49.5973 93.2804 50.9873 95.1986 50.9873V46.9873C95.2378 46.9873 95.2793 46.9953 95.312 47.0075C95.3418 47.0187 95.339 47.0239 95.3046 46.9965C95.2237 46.9318 95.044 46.7465 94.8112 46.3183L91.2969 48.2286ZM95.1986 50.9873C96.0389 50.9873 96.8716 50.7299 97.5637 50.1367L94.9605 47.0997C95.0056 47.061 95.0639 47.0268 95.1251 47.0056C95.1832 46.9854 95.2138 46.9873 95.1986 46.9873V50.9873ZM97.5637 50.1367C98.2091 49.5835 98.6927 48.7751 98.6927 47.7656H94.6927C94.6927 47.6175 94.7287 47.4597 94.7999 47.3187C94.8672 47.1855 94.9407 47.1166 94.9605 47.0997L97.5637 50.1367ZM98.6927 47.7656C98.6927 46.9492 98.3837 46.249 97.9752 45.697L94.7599 48.0764C94.7742 48.0958 94.7569 48.0773 94.7357 48.0202C94.7132 47.9593 94.6927 47.8713 94.6927 47.7656H98.6927ZM97.9752 45.697C97.5906 45.1773 96.9256 44.5861 96.2007 43.9935L93.6691 47.0905C94.0173 47.3751 94.2838 47.6067 94.478 47.789C94.5746 47.8797 94.6459 47.9512 94.6965 48.0052C94.7493 48.0616 94.7654 48.0839 94.7599 48.0764L97.9752 45.697ZM96.2 43.9929C94.7895 42.841 94.1033 42.1249 93.8793 41.7856L90.5414 43.9898C91.1376 44.8927 92.2679 45.9461 93.6699 47.0911L96.2 43.9929ZM93.884 41.7928C93.6424 41.4234 93.5951 41.1739 93.5951 41.0156H89.5951C89.5951 42.0995 89.958 43.0981 90.5367 43.9826L93.884 41.7928ZM93.5951 41.0156C93.5951 40.6958 93.6885 40.4483 93.9842 40.1704L91.2451 37.2554C90.1814 38.2549 89.5951 39.5425 89.5951 41.0156H93.5951ZM93.9846 40.17C94.2736 39.8983 94.6168 39.7461 95.1459 39.7461V35.7461C93.6711 35.7461 92.3267 36.2384 91.2447 37.2558L93.9846 40.17ZM95.1459 39.7461C95.4677 39.7461 95.7664 39.8175 96.0669 39.9723L97.8987 36.4164C97.039 35.9735 96.1131 35.7461 95.1459 35.7461V39.7461ZM96.0741 39.976C96.3323 40.1077 96.7663 40.4366 97.3643 41.1325L100.398 38.5257C99.6367 37.6395 98.8051 36.8786 97.8914 36.4127L96.0741 39.976Z" fill="white"/>
</svg>
