<svg width="276" height="275" viewBox="0 0 276 275" fill="none" xmlns="http://www.w3.org/2000/svg">
<path d="M0 249.944C17.4054 249.378 17.973 234.371 18.4459 228C18.4459 244.989 29.482 249.708 35 249.944C21.7592 249.944 18.4605 262.936 18.4446 269.71C18.4455 269.806 18.4459 269.903 18.4459 270C18.4448 269.905 18.4444 269.808 18.4446 269.71C18.2972 253.907 6.11141 249.944 0 249.944Z" fill="#FF8E38"/>
<path d="M28 264.972C36.4541 264.689 36.7297 257.185 36.9595 254C36.9595 262.494 42.3198 264.854 45 264.972C38.5688 264.972 36.9665 271.468 36.9588 274.855C36.9592 274.903 36.9595 274.951 36.9595 275C36.9589 274.952 36.9587 274.904 36.9588 274.855C36.8872 266.953 30.9684 264.972 28 264.972Z" fill="#FF8E38"/>
<path d="M208 42.8427C241.816 41.7371 242.919 12.4382 243.838 0C243.838 33.1685 265.279 42.382 276 42.8427C250.275 42.8427 243.866 68.2076 243.835 81.4331C243.837 81.6212 243.838 81.8102 243.838 82C243.836 81.8137 243.835 81.6247 243.835 81.4331C243.549 50.5795 219.874 42.8427 208 42.8427Z" fill="#FF8E38"/>
<circle cx="130.5" cy="146.5" r="93.5" fill="#FFDBC7"/>
<path d="M116.974 113.901L101.6 126.241L107.717 133.862L123.091 121.522L116.974 113.901Z" fill="#4B6700"/>
<path d="M103.875 97.5804C102.913 96.3815 101.662 95.41 100.26 94.7711C94.6292 92.2065 90.4998 87.0618 89.2145 81.0088C88.8941 79.5022 88.2162 78.0711 87.2539 76.8722L58.8625 41.4995C55.4898 37.2974 49.2968 36.6463 45.0583 40.0483C40.8197 43.4504 40.1153 49.6374 43.4881 53.8396L71.8798 89.2128C72.8421 90.4117 74.0926 91.3832 75.495 92.0221C81.1256 94.5866 85.255 99.7314 86.5403 105.784C86.8608 107.291 87.5386 108.722 88.5009 109.921L95.4827 118.62L110.857 106.279L103.875 97.5804Z" fill="#4B6700"/>
<path d="M117.677 138.398L139.852 166.025L139.857 166.02C143.444 170.37 148.144 173.49 153.449 175.092C153.032 169.565 151.003 164.302 147.533 159.859L147.539 159.855L125.365 132.228L117.677 138.398Z" fill="#4B6700"/>
<path d="M164.07 145.02L154.461 152.732L154.986 153.386C161.382 161.355 164.265 171.358 163.104 181.554C162.95 182.9 162.265 184.061 161.282 184.851C160.298 185.64 159.016 186.058 157.668 185.916C147.463 184.843 138.32 179.865 131.925 171.896L131.4 171.242L121.791 178.955C118.611 181.507 118.083 186.146 120.613 189.298L152.898 229.522C160.556 239.063 170.72 246.249 182.294 250.304C193.089 254.086 204.669 254.991 215.942 252.952C220.372 242.387 221.995 230.885 220.637 219.528C219.183 207.351 214.366 195.872 206.709 186.332L174.424 146.108C171.894 142.956 167.25 142.468 164.07 145.02Z" fill="#4B6700"/>
</svg>
