<svg width="265" height="259" viewBox="0 0 265 259" fill="none" xmlns="http://www.w3.org/2000/svg">
<g clip-path="url(#clip0_4_52)">
<path d="M53.5162 148.26C51.2747 148.285 49.1335 149.194 47.5573 150.79C45.981 152.386 45.097 154.54 45.097 156.785C45.0971 159.029 45.9812 161.184 47.5575 162.78C49.1337 164.376 51.275 165.285 53.5165 165.309C55.758 165.285 57.8992 164.375 59.4754 162.779C61.0516 161.183 61.9357 159.029 61.9356 156.784C61.9356 154.54 61.0515 152.386 59.4752 150.79C57.899 149.194 55.7577 148.285 53.5162 148.26ZM53.5162 160.199C52.6207 160.185 51.7664 159.82 51.1378 159.181C50.5092 158.542 50.1569 157.681 50.1569 156.785C50.1569 155.888 50.5093 155.027 51.1379 154.388C51.7665 153.749 52.6209 153.384 53.5164 153.371C54.4114 153.385 55.2651 153.75 55.8931 154.389C56.5212 155.028 56.8732 155.888 56.8731 156.785C56.8731 157.681 56.5211 158.541 55.893 159.18C55.265 159.819 54.4113 160.185 53.5162 160.199Z" fill="#384E00"/>
<path d="M139.423 191.75L125.424 177.919C120.241 172.309 102.824 161.711 96.4059 157.161C94.9475 156.197 93.1961 155.78 91.4604 155.983C89.7248 156.186 88.1163 156.995 86.9187 158.27L71.9019 149.853C71.0451 147.402 69.704 145.148 67.9585 143.227C66.213 141.306 64.099 139.757 61.7425 138.671L59.1858 125.173C59.1108 124.777 58.9433 124.405 58.6971 124.086C58.4509 123.767 58.1329 123.511 57.769 123.339L17.091 104.096C16.6632 103.893 16.1877 103.814 15.7174 103.866C15.2472 103.918 14.8008 104.101 14.4281 104.393L10.8045 107.23C10.5244 107.453 10.2939 107.732 10.1277 108.05C9.96152 108.367 9.86332 108.715 9.8394 109.073C9.81547 109.431 9.86635 109.789 9.98878 110.126C10.1112 110.463 10.3025 110.77 10.5504 111.028L27.29 128.225C27.7703 128.708 28.4214 128.981 29.1016 128.985C29.7818 128.989 30.4361 128.724 30.9223 128.248L33.0618 126.104L40.0722 133.209C35.3123 136.807 38.0726 138.006 40.9303 141.422C39.8541 142.334 38.8813 143.361 38.0293 144.486L34.997 141.389C34.7517 141.144 34.4596 140.951 34.138 140.821C33.8165 140.692 33.4721 140.629 33.1256 140.635C32.779 140.642 32.4374 140.719 32.1212 140.861C31.8049 141.003 31.5205 141.207 31.2849 141.462L29.6065 143.316L22.8839 136.453L24.6695 134.714C24.9104 134.477 25.1023 134.195 25.234 133.884C25.3658 133.572 25.4348 133.238 25.4373 132.9C25.4397 132.562 25.3754 132.227 25.2482 131.914C25.1209 131.6 24.9332 131.316 24.6957 131.075L7.29058 113.646C7.02 113.38 6.69378 113.176 6.3354 113.051C5.97701 112.926 5.59536 112.882 5.21789 112.922C4.84042 112.962 4.47652 113.085 4.15234 113.283C3.82817 113.481 3.55179 113.748 3.34307 114.066L0.408553 118.615C0.165037 118.993 0.0251923 119.428 0.00309704 119.877C-0.0189983 120.326 0.0774352 120.773 0.28269 121.173L20.6223 160.755C20.7998 161.1 21.0534 161.4 21.3638 161.632C21.6743 161.864 22.0335 162.023 22.4142 162.095L35.8496 164.657C37.9443 169.204 41.7199 172.76 46.3809 174.575L54.9288 190.253C53.6427 191.439 52.8163 193.042 52.5957 194.779C52.375 196.516 52.7743 198.275 53.7229 199.746C58.2397 206.246 68.5101 223.658 74.1559 229.014L87.8229 243.173C88.9188 244.309 90.2324 245.21 91.6849 245.825C93.1374 246.439 94.6988 246.753 96.2754 246.748C97.8521 246.743 99.4116 246.42 100.86 245.797C102.309 245.173 103.617 244.264 104.706 243.122C105.795 241.98 106.642 240.63 107.198 239.152C107.753 237.674 108.004 236.099 107.936 234.522C107.869 232.945 107.483 231.397 106.804 229.972C106.124 228.548 105.165 227.275 103.982 226.231L98.8381 221.692C89.8854 214.692 80.4487 195.2 74.4275 185.631C73.8946 184.725 73.1755 183.944 72.3179 183.338C71.4603 182.732 70.4838 182.316 69.4533 182.117C68.6698 181.978 67.8691 181.969 67.0825 182.088L62.8378 173.551C66.0002 171.841 68.6219 169.279 70.4069 166.154L78.6408 170.344C78.4145 171.784 78.6229 173.258 79.2395 174.578C79.856 175.898 80.8525 177.004 82.101 177.752L104.508 191.288C109.526 194.317 114.032 198.122 117.861 202.563L122.344 207.759C123.375 208.951 124.636 209.923 126.052 210.616C127.467 211.309 129.007 211.708 130.58 211.791C132.153 211.873 133.727 211.637 135.207 211.096C136.686 210.555 138.042 209.72 139.192 208.642C140.342 207.564 141.263 206.265 141.899 204.822C142.536 203.379 142.875 201.823 142.897 200.245C142.918 198.668 142.622 197.103 142.025 195.643C141.428 194.183 140.543 192.859 139.423 191.75ZM80.9326 165.777L72.3727 161.421C72.8275 159.772 73.0592 158.07 73.0618 156.36L83.6651 162.305L80.9326 165.777ZM5.49626 120.147L5.91618 119.496L19.2566 132.855L17.4884 134.577C17.0051 135.052 16.7292 135.7 16.721 136.378C16.7128 137.057 16.9731 137.711 17.4449 138.198L27.857 148.829C28.1015 149.075 28.3934 149.27 28.715 149.4C29.0367 149.531 29.3815 149.594 29.7284 149.588C30.0754 149.581 30.4174 149.504 30.7338 149.361C31.0501 149.218 31.3342 149.012 31.569 148.756L33.2474 146.902L35.3929 149.093C34.0979 152.271 33.6789 155.739 34.1797 159.135L24.591 157.306L5.49626 120.147ZM58.0621 175.41L62.4956 184.329L58.9918 187.036L52.9301 175.918C54.6567 176.015 56.3878 175.844 58.0621 175.41ZM70.0315 188.226C76.5422 198.643 85.7609 217.833 95.4639 225.525L100.608 230.064C101.263 230.656 101.793 231.374 102.166 232.175C102.54 232.976 102.749 233.844 102.781 234.727C102.814 235.61 102.67 236.491 102.356 237.317C102.043 238.144 101.568 238.899 100.958 239.538C100.348 240.177 99.6166 240.687 98.8066 241.038C97.9965 241.389 97.1244 241.574 96.2418 241.581C95.3592 241.589 94.484 241.419 93.668 241.082C92.8521 240.745 92.1119 240.248 91.4912 239.62C86.5897 234.243 74.987 223.441 71.3212 217.312L57.992 196.946C57.6775 196.461 57.5562 195.875 57.6519 195.305C57.7477 194.735 58.0536 194.221 58.5091 193.866L66.6509 187.575C66.9093 187.377 67.2064 187.237 67.5228 187.162C67.8392 187.088 68.1677 187.081 68.4869 187.142C68.8061 187.204 69.1087 187.332 69.3748 187.519C69.641 187.706 69.8648 187.947 70.0315 188.226ZM58.458 169.956C42.0564 175.729 31.3146 153.024 46.1901 143.865C46.7283 143.468 47.0877 142.873 47.1899 142.211C47.2921 141.549 47.1288 140.874 46.7356 140.332C46.6987 140.261 46.6581 140.191 46.6141 140.124L43.6834 136.835L45.474 135.263C45.7338 135.032 45.9441 134.751 46.0921 134.436C46.2402 134.121 46.323 133.78 46.3354 133.432C46.3479 133.085 46.2898 132.738 46.1646 132.414C46.0395 132.089 45.8498 131.793 45.6073 131.544L34.8886 120.684C34.653 120.443 34.3718 120.251 34.0614 120.12C33.751 119.988 33.4177 119.92 33.0807 119.919C32.7438 119.918 32.4101 119.985 32.099 120.114C31.7879 120.244 31.5057 120.434 31.2687 120.674L29.1417 122.805L16.1913 109.501L16.3333 109.391L54.4133 127.404L56.9789 140.948C57.0898 141.371 57.2941 141.763 57.5769 142.096C57.8597 142.429 58.2137 142.694 58.6126 142.872C70.9879 147.24 70.9094 165.641 58.458 169.956ZM135.508 205.109C134.18 206.246 132.457 206.811 130.714 206.681C128.972 206.551 127.352 205.736 126.207 204.415L121.724 199.222C117.544 194.373 112.623 190.218 107.145 186.911L84.7376 173.375C84.4599 173.206 84.2211 172.979 84.0369 172.711C83.8527 172.443 83.7273 172.139 83.6689 171.818C83.6106 171.498 83.6205 171.169 83.6982 170.853C83.7759 170.536 83.9195 170.24 84.1196 169.984L90.4845 161.896C90.8433 161.442 91.3592 161.14 91.9298 161.05C92.5004 160.96 93.084 161.088 93.5647 161.409L113.766 174.962C119.811 178.648 130.593 190.478 135.839 195.389C136.485 196.033 136.991 196.803 137.326 197.652C137.661 198.5 137.818 199.409 137.787 200.321C137.756 201.233 137.537 202.129 137.145 202.952C136.753 203.776 136.196 204.51 135.508 205.109Z" fill="#384E00"/>
<path d="M225.702 13.8382C224.552 13.8382 223.425 14.3822 222.354 15.4545L212.94 24.868C212.252 25.555 211.026 25.555 210.336 24.8665L204.436 18.9669C203.718 18.2489 203.718 17.0817 204.434 16.3637L213.848 6.95019C215.94 4.8614 215.5 3.01973 215.216 2.32502C214.931 1.63031 213.946 0.0139874 210.962 0C209.482 0 196.303 0.200487 189.339 7.16777C182.185 14.32 182.169 28.2281 182.172 28.8172C182.18 30.4941 181.109 33.0973 179.925 34.28L123.177 91.0269C121.999 92.2034 119.403 93.2742 117.686 93.2742C116.206 93.2742 103.028 93.4747 96.0608 100.44C88.9069 107.596 88.8929 121.505 88.896 122.094C88.9131 125.183 90.7159 126.566 92.497 126.566C93.6471 126.566 94.7739 126.022 95.8448 124.951L105.254 115.541C105.945 114.855 107.173 114.851 107.862 115.539L113.76 121.439C114.105 121.784 114.295 122.247 114.295 122.741C114.295 123.237 114.105 123.698 113.761 124.043L104.351 133.455C102.26 135.546 102.699 137.384 102.983 138.081C103.268 138.774 104.25 140.39 107.207 140.406H107.235C108.717 140.406 121.896 140.204 128.86 133.241C136.014 126.087 136.028 112.177 136.025 111.592C136.019 109.916 137.091 107.311 138.274 106.127L195.024 49.3771C196.2 48.2006 198.796 47.1298 200.51 47.1298C201.99 47.1298 215.174 46.9293 222.137 39.9651C229.29 32.8113 229.304 18.9016 229.301 18.3142C229.287 15.2214 227.483 13.8382 225.702 13.8382ZM107.234 138.073L107.231 136.17C107.231 136.17 107.232 136.174 107.234 136.177V138.073ZM218.839 36.6672C213.108 42.3974 200.648 42.4658 200.466 42.4658C197.543 42.4658 193.785 44.0199 191.726 46.0792L134.976 102.829C132.904 104.901 131.35 108.676 131.361 111.61C131.361 111.734 131.355 124.148 125.562 129.941C121.009 134.495 112.207 135.474 108.715 135.682L117.059 127.338C118.286 126.114 118.96 124.48 118.959 122.739C118.959 120.999 118.283 119.365 117.058 118.141L111.16 112.241C109.933 111.016 108.302 110.34 106.561 110.34C104.82 110.34 103.188 111.015 101.96 112.241L93.6129 120.589C93.815 117.098 94.7786 108.317 99.3588 103.737C105.091 98.0051 117.544 97.9367 117.732 97.9367C120.653 97.9367 124.411 96.3841 126.473 94.3248L183.22 37.5764C185.294 35.5062 186.849 31.7297 186.835 28.7954C186.835 28.6711 186.866 16.2332 192.635 10.4626C197.19 5.90735 205.99 4.92823 209.484 4.71842L201.136 13.0658C198.603 15.6022 198.605 19.7269 201.139 22.2617L207.039 28.1613C208.264 29.3875 209.899 30.062 211.64 30.062C213.38 30.062 215.014 29.3875 216.237 28.1629L224.587 19.8124C224.39 23.2968 223.437 32.0669 218.839 36.6672Z" fill="#384E00"/>
<path d="M184.737 41.2691L129.788 96.2162C128.878 97.127 128.878 98.6019 129.788 99.5126C130.244 99.968 130.84 100.195 131.437 100.195C132.034 100.195 132.631 99.968 133.086 99.5126L188.035 44.5654C188.945 43.6562 188.945 42.1782 188.035 41.2691C187.122 40.3583 185.647 40.3583 184.737 41.2691Z" fill="#384E00"/>
<path d="M221.601 83.9354L215.442 82.361C214.515 82.1254 213.54 82.1644 212.634 82.473C211.728 82.7816 210.931 83.3467 210.34 84.0993L200.902 96.1262C200.495 96.6483 200.196 97.2466 200.023 97.8857C199.851 98.5248 199.808 99.1917 199.897 99.8472L201.192 109.123L187.291 163.179L186.964 163.095C184.914 162.592 182.754 162.775 180.817 163.617C178.879 164.459 177.272 165.914 176.241 167.757C175.21 169.6 174.813 171.729 175.11 173.817C175.408 175.906 176.385 177.838 177.889 179.316C176.063 181.316 172.635 184.093 172.149 186.94L159.581 235.814C158.963 238.19 158.823 240.664 159.168 243.093C159.513 245.522 160.338 247.857 161.593 249.965C169.595 264.128 192.035 260.96 195.791 245.059L208.356 196.196C209.306 193.467 207.643 189.399 206.989 186.745C209.143 186.133 211.02 184.795 212.3 182.958C213.579 181.12 214.183 178.897 214.008 176.668C213.833 174.438 212.89 172.338 211.34 170.727C209.79 169.115 207.728 168.091 205.505 167.829L219.63 112.903L226.348 104.839C226.804 104.293 227.136 103.655 227.322 102.969C227.507 102.283 227.542 101.565 227.423 100.865L225.235 87.8849C225.078 86.9453 224.65 86.072 224.005 85.3709C223.36 84.6699 222.525 84.1712 221.601 83.9354ZM203.582 194.974L191.017 243.841C190.313 246.455 188.857 248.807 186.828 250.603C184.8 252.4 182.289 253.562 179.607 253.947C176.925 254.332 174.191 253.921 171.743 252.766C169.295 251.612 167.241 249.764 165.836 247.452C164.912 245.9 164.305 244.181 164.051 242.392C163.796 240.604 163.9 238.782 164.355 237.033L176.922 188.159C177.153 186.506 181.372 183.031 182.347 181.791L201.884 186.78C202.178 188.372 204.158 193.413 203.582 194.974ZM209.034 178.667C208.722 179.874 207.944 180.909 206.87 181.545C205.796 182.181 204.515 182.365 203.306 182.058L183.395 176.974C182.202 176.652 181.184 175.873 180.562 174.806C179.94 173.739 179.764 172.47 180.072 171.273C180.38 170.076 181.147 169.047 182.207 168.41C183.267 167.772 184.535 167.577 185.737 167.866L205.649 172.95C206.857 173.26 207.891 174.036 208.526 175.107C209.16 176.179 209.343 177.459 209.034 178.667ZM222.562 101.689L215.843 109.757C215.376 110.318 215.039 110.976 214.855 111.682L200.731 166.61L192.064 164.397L205.969 110.329C206.126 109.71 206.161 109.067 206.072 108.435L204.779 99.1606L214.218 87.1337L220.373 88.7075L222.562 101.689Z" fill="#384E00"/>
<path d="M182.565 199.8C182.251 199.72 181.925 199.702 181.605 199.748C181.284 199.794 180.976 199.902 180.697 200.067C180.419 200.232 180.175 200.45 179.981 200.709C179.787 200.968 179.645 201.263 179.565 201.576L171.634 232.415C171.552 232.729 171.532 233.057 171.576 233.378C171.62 233.7 171.727 234.009 171.892 234.289C172.056 234.569 172.275 234.813 172.534 235.008C172.794 235.203 173.089 235.345 173.404 235.425C173.719 235.506 174.046 235.523 174.368 235.476C174.689 235.43 174.999 235.32 175.278 235.154C175.557 234.987 175.801 234.767 175.995 234.506C176.189 234.246 176.329 233.949 176.408 233.634L184.338 202.795C184.419 202.481 184.437 202.155 184.391 201.835C184.346 201.515 184.238 201.207 184.073 200.929C183.908 200.651 183.69 200.408 183.432 200.214C183.173 200.02 182.878 199.88 182.565 199.8Z" fill="#384E00"/>
<path d="M190.018 204.245L182.088 235.084C181.94 235.712 182.043 236.373 182.377 236.924C182.711 237.475 183.248 237.874 183.873 238.033C184.498 238.193 185.161 238.101 185.72 237.777C186.279 237.454 186.689 236.925 186.861 236.303L194.792 205.464C194.94 204.836 194.835 204.176 194.502 203.625C194.168 203.074 193.631 202.676 193.006 202.516C192.381 202.357 191.718 202.448 191.16 202.772C190.601 203.095 190.191 203.624 190.018 204.245Z" fill="#384E00"/>
<path d="M37.3861 28.672C52.6729 28.1679 53.1714 14.8097 53.5868 9.13882C53.5868 24.2613 63.2794 28.462 68.1258 28.672C56.4967 28.672 53.5996 40.2367 53.5856 46.2666C53.5864 46.3523 53.5868 46.4384 53.5868 46.5249C53.5858 46.44 53.5854 46.3539 53.5856 46.2666C53.4561 32.1995 42.7536 28.672 37.3861 28.672Z" fill="#FF8E38"/>
<path d="M29.0781 47.3697C36.9281 47.1121 37.1841 40.2846 37.3974 37.3861C37.3974 45.1154 42.3747 47.2624 44.8634 47.3697C38.8917 47.3697 37.404 53.2805 37.3968 56.3624C37.3972 56.4063 37.3974 56.4503 37.3974 56.4945C37.3969 56.4511 37.3967 56.4071 37.3968 56.3624C37.3303 49.1726 31.8344 47.3697 29.0781 47.3697Z" fill="#FF8E38"/>
<path d="M224 228.124C244.389 227.449 245.054 209.584 245.608 202C245.608 222.225 258.536 227.843 265 228.124C249.489 228.124 245.625 243.59 245.607 251.655C245.608 251.769 245.608 251.884 245.608 252C245.607 251.886 245.606 251.771 245.607 251.655C245.434 232.841 231.159 228.124 224 228.124Z" fill="#FF8E38"/>
</g>
<defs>
<clipPath id="clip0_4_52">
<rect width="265" height="259" fill="white"/>
</clipPath>
</defs>
</svg>
