<svg width="154" height="154" viewBox="0 0 154 154" fill="none" xmlns="http://www.w3.org/2000/svg">
<g clip-path="url(#clip0_4_1553)">
<path d="M80.6975 57.6153C93.163 27.1838 65.4327 -5.50693 33.3638 1.85409C32.8935 1.93042 32.4537 2.13612 32.0936 2.44816C31.7336 2.7602 31.4675 3.16628 31.325 3.62095C31.134 4.14912 31.1124 4.72376 31.2635 5.26473C31.4146 5.8057 31.7308 6.28604 32.1679 6.63876L53.945 28.4431L48.9969 48.9969L28.5791 53.8363L6.69317 31.9775C6.29304 31.4714 5.72531 31.1248 5.09226 31.0002C4.45921 30.8755 3.80247 30.9811 3.24036 31.2978C2.88918 31.4803 2.5857 31.7426 2.35433 32.0637C2.12296 32.3848 1.97014 32.7557 1.90818 33.1466C0.346365 39.9608 0.545148 47.0605 2.4858 53.7766C4.42644 60.4928 8.04506 66.6043 13.0007 71.5353C33.3171 92.4754 70.4266 84.8542 80.6975 57.6153Z" fill="#AA8F12"/>
<path d="M129.119 129.118C128.266 129.999 127.794 131.18 127.804 132.406C127.814 133.632 128.306 134.804 129.172 135.671C130.039 136.538 131.212 137.029 132.438 137.039C133.664 137.049 134.844 136.577 135.725 135.725C136.578 134.844 137.05 133.663 137.04 132.437C137.029 131.212 136.538 130.039 135.671 129.172C134.804 128.305 133.632 127.814 132.406 127.804C131.18 127.794 129.999 128.266 129.119 129.118Z" fill="#E47000"/>
<path d="M147.769 121.859L85.6729 59.7631C83.3389 65.6144 79.8381 70.9291 75.3836 75.3836C70.9292 79.838 65.6144 83.3389 59.7632 85.6728L121.859 147.769C123.557 149.471 125.574 150.821 127.795 151.74C130.016 152.659 132.397 153.13 134.801 153.125C150.844 153.395 159.298 133.027 147.769 121.859ZM139.586 139.586C129.885 148.709 116.104 134.971 125.285 125.285C127.189 123.424 129.75 122.389 132.412 122.405C135.074 122.42 137.622 123.484 139.505 125.366C141.387 127.249 142.451 129.797 142.466 132.459C142.481 135.121 141.446 137.682 139.586 139.586Z" fill="#4B6700"/>
</g>
<defs>
<clipPath id="clip0_4_1553">
<rect width="154" height="154" fill="white"/>
</clipPath>
</defs>
</svg>
