<svg width="212" height="197" viewBox="0 0 212 197" fill="none" xmlns="http://www.w3.org/2000/svg">
<path d="M170.5 43V184C170.5 189.523 166.023 194 160.5 194H40C34.4772 194 30 189.523 30 184V28C30 22.4772 34.4772 18 40 18H148.5M170.5 43L148.5 18M170.5 43H158.5C152.977 43 148.5 38.5228 148.5 33V18" stroke="white" stroke-width="6"/>
<line x1="49" y1="59" x2="144" y2="59" stroke="white" stroke-width="4" stroke-linecap="round"/>
<line x1="49" y1="122" x2="144" y2="122" stroke="white" stroke-width="4" stroke-linecap="round"/>
<line x1="49" y1="80" x2="144" y2="80" stroke="white" stroke-width="4" stroke-linecap="round"/>
<line x1="49" y1="143" x2="144" y2="143" stroke="white" stroke-width="4" stroke-linecap="round"/>
<line x1="49" y1="101" x2="144" y2="101" stroke="white" stroke-width="4" stroke-linecap="round"/>
<line x1="49" y1="164" x2="144" y2="164" stroke="white" stroke-width="4" stroke-linecap="round"/>
<path d="M182 18.809C196.919 18.3236 197.405 5.46067 197.811 0C197.811 14.5618 207.27 18.6067 212 18.809C200.651 18.809 197.823 29.9449 197.81 35.7513C197.81 35.8338 197.811 35.9167 197.811 36C197.81 35.9182 197.809 35.8353 197.81 35.7513C197.683 22.2057 187.238 18.809 182 18.809Z" fill="white"/>
<path d="M173 40.4944C181.951 40.1978 182.243 32.3371 182.486 29C182.486 37.8989 188.162 40.3708 191 40.4944C184.19 40.4944 182.494 47.2997 182.486 50.848C182.486 50.8984 182.486 50.9491 182.486 51C182.486 50.95 182.486 50.8994 182.486 50.848C182.41 42.5701 176.143 40.4944 173 40.4944Z" fill="white"/>
<path d="M0 183.494C8.95135 183.198 9.24324 175.337 9.48649 172C9.48649 180.899 15.1622 183.371 18 183.494C11.1905 183.494 9.49399 190.3 9.48579 193.848C9.48625 193.898 9.48649 193.949 9.48649 194C9.48591 193.95 9.48567 193.899 9.48579 193.848C9.41 185.57 3.14301 183.494 0 183.494Z" fill="white"/>
<path d="M18 161.989C35.9027 161.396 36.4865 145.674 36.973 139C36.973 156.798 48.3243 161.742 54 161.989C40.3809 161.989 36.988 175.599 36.9716 182.696C36.9725 182.797 36.973 182.898 36.973 183C36.9718 182.9 36.9713 182.799 36.9716 182.696C36.82 166.14 24.286 161.989 18 161.989Z" fill="white"/>
</svg>
