<svg width="18" height="18" viewBox="0 0 18 18" fill="none" xmlns="http://www.w3.org/2000/svg">
<path d="M7.93749 17.1903L0.708922 9.78537C0.599399 9.67318 0.521636 9.55163 0.475636 9.42074C0.429636 9.28984 0.407002 9.1496 0.407732 9.00001C0.407732 8.85041 0.430732 8.71017 0.476732 8.57928C0.522732 8.44838 0.600129 8.32684 0.708922 8.21464L7.93749 0.809763C8.13829 0.604072 8.38946 0.496739 8.69102 0.487763C8.99257 0.478788 9.25251 0.586121 9.47083 0.809763C9.68987 1.01545 9.80414 1.27275 9.81364 1.58167C9.82313 1.89058 9.71798 2.15685 9.49821 2.38049L4.13154 7.87806H16.3708C16.6811 7.87806 16.9414 7.98576 17.1517 8.20118C17.362 8.41659 17.4668 8.68287 17.4661 9.00001C17.4661 9.31789 17.3613 9.58454 17.1517 9.79996C16.9422 10.0154 16.6819 10.1227 16.3708 10.122H4.13154L9.49821 15.6195C9.699 15.8252 9.80414 16.087 9.81364 16.4049C9.82313 16.7228 9.71798 16.9846 9.49821 17.1903C9.29741 17.4146 9.04186 17.5268 8.73154 17.5268C8.42122 17.5268 8.15654 17.4146 7.93749 17.1903Z" fill="#E47000"/>
</svg>
