<svg width="20" height="20" viewBox="0 0 20 20" fill="none" xmlns="http://www.w3.org/2000/svg">
<g clip-path="url(#clip0_27_539)">
<path d="M19.8986 4.72727L18.7742 11.1292C18.6814 11.658 18.4129 12.1363 18.0155 12.4808C17.618 12.8253 17.1168 13.0141 16.5991 13.0144H5.90783L6.31336 15.311H16.2212C16.6587 15.311 17.0864 15.4457 17.4501 15.6981C17.8139 15.9504 18.0974 16.3091 18.2648 16.7288C18.4322 17.1484 18.476 17.6102 18.3907 18.0557C18.3053 18.5012 18.0947 18.9104 17.7853 19.2316C17.476 19.5528 17.0818 19.7716 16.6527 19.8602C16.2237 19.9488 15.7789 19.9033 15.3747 19.7295C14.9705 19.5557 14.6251 19.2613 14.382 18.8836C14.1389 18.5059 14.0092 18.0619 14.0092 17.6077C14.0093 17.3466 14.053 17.0876 14.1382 16.8421H8.71889C8.80419 17.0876 8.84785 17.3466 8.84793 17.6077C8.84859 17.9782 8.76289 18.3434 8.59815 18.6721C8.4334 19.0008 8.1945 19.2833 7.90183 19.4953C7.60916 19.7074 7.27142 19.8428 6.91743 19.8899C6.56344 19.9371 6.20372 19.8946 5.86898 19.7661C5.53423 19.6376 5.23439 19.427 4.99506 19.1521C4.75573 18.8772 4.58402 18.5463 4.49457 18.1876C4.40512 17.8288 4.4006 17.453 4.48139 17.092C4.56218 16.7311 4.72588 16.3958 4.95853 16.1148L2.40553 1.5311H0.737327C0.541776 1.5311 0.354234 1.45044 0.215958 1.30688C0.0776824 1.16331 0 0.968587 0 0.76555C0 0.562514 0.0776824 0.367793 0.215958 0.224224C0.354234 0.0806559 0.541776 0 0.737327 0H2.40553C2.74971 0.000781721 3.08279 0.126539 3.34706 0.355487C3.61134 0.584434 3.79015 0.902148 3.85253 1.25359L4.30415 3.82775H19.1705C19.2781 3.82798 19.3844 3.85299 19.4816 3.90098C19.5788 3.94896 19.6646 4.01873 19.7327 4.10526C19.804 4.18908 19.856 4.28864 19.8848 4.3964C19.9135 4.50417 19.9182 4.61732 19.8986 4.72727Z" fill="#FFDBC7"/>
</g>
<defs>
<clipPath id="clip0_27_539">
<rect width="20" height="20" fill="white"/>
</clipPath>
</defs>
</svg>
