<svg width="18" height="19" viewBox="0 0 18 19" fill="none" xmlns="http://www.w3.org/2000/svg">
<path d="M4.42338 5.02962C4.57644 4.87656 4.78403 4.79057 5.00049 4.79057C5.21694 4.79057 5.42454 4.87656 5.57759 5.02962L13.2723 12.7243C13.4254 12.8774 13.5114 13.085 13.5114 13.3014C13.5114 13.5179 13.4254 13.7255 13.2723 13.8786C13.1193 14.0316 12.9117 14.1176 12.6952 14.1176C12.4788 14.1176 12.2712 14.0316 12.1181 13.8786L4.42338 6.18383C4.27033 6.03077 4.18434 5.82318 4.18434 5.60672C4.18434 5.39027 4.27033 5.18268 4.42338 5.02962Z" fill="white"/>
<path d="M13.2723 5.02965C13.4253 5.1827 13.5113 5.39029 13.5113 5.60675C13.5113 5.82321 13.4253 6.0308 13.2723 6.18386L5.57753 13.8786C5.42448 14.0316 5.21688 14.1176 5.00043 14.1176C4.78397 14.1176 4.57638 14.0316 4.42332 13.8786C4.27027 13.7255 4.18428 13.5179 4.18428 13.3015C4.18428 13.085 4.27027 12.8774 4.42332 12.7244L12.1181 5.02965C12.2711 4.87659 12.4787 4.7906 12.6952 4.7906C12.9116 4.7906 13.1192 4.87659 13.2723 5.02965Z" fill="white"/>
</svg>
