<svg width="20" height="20" viewBox="0 0 20 20" fill="none" xmlns="http://www.w3.org/2000/svg">
<path d="M20 8.99496V18.2914C19.9993 18.5817 19.9177 18.8663 19.7637 19.1156C19.6098 19.365 19.3892 19.5697 19.125 19.7085C18.8828 19.8374 18.6099 19.9032 18.3333 19.8995H13.3333C13.1123 19.8995 12.9004 19.8148 12.7441 19.664C12.5878 19.5132 12.5 19.3087 12.5 19.0955V14.2713C12.5 14.0581 12.4122 13.8536 12.2559 13.7028C12.0997 13.552 11.8877 13.4673 11.6667 13.4673H8.33335C8.11233 13.4673 7.90037 13.552 7.74409 13.7028C7.58781 13.8536 7.50001 14.0581 7.50001 14.2713V19.0955C7.50001 19.3087 7.41222 19.5132 7.25594 19.664C7.09966 19.8148 6.88769 19.8995 6.66668 19.8995H1.66669C1.43025 19.9003 1.19637 19.8524 0.980764 19.7588C0.765156 19.6651 0.57282 19.5281 0.416687 19.3568C0.145745 19.0479 -0.00201149 18.6559 2.06861e-05 18.2512V8.99496C9.41713e-05 8.77185 0.0482901 8.55119 0.141543 8.34702C0.234797 8.14285 0.371067 7.95964 0.541687 7.80903L8.87501 0.502502C9.18225 0.231305 9.58359 0.0809021 10 0.0809021C10.4164 0.0809021 10.8178 0.231305 11.125 0.502502L19.4583 7.80903C19.629 7.95964 19.7652 8.14285 19.8585 8.34702C19.9517 8.55119 19.9999 8.77185 20 8.99496Z" fill="#E47000"/>
</svg>
