<svg width="20" height="20" viewBox="0 0 20 20" fill="none" xmlns="http://www.w3.org/2000/svg">
<path fill-rule="evenodd" clip-rule="evenodd" d="M10.0001 5.00016C5.95408 5.00016 4.07497 8.14398 3.41415 9.62802C3.30764 9.86721 3.30764 10.1331 3.41415 10.3723C4.07497 11.8563 5.95408 15.0002 10.0001 15.0002C14.0462 15.0002 15.9251 11.8562 16.5858 10.3722C16.6923 10.1331 16.6923 9.86724 16.5858 9.62809C15.9251 8.14411 14.0462 5.00016 10.0001 5.00016ZM1.8916 8.95006C2.61604 7.32313 4.90948 3.3335 10.0001 3.3335C15.0909 3.3335 17.3841 7.32335 18.1084 8.95021C18.407 9.62086 18.407 10.3795 18.1084 11.0501C17.3841 12.677 15.0909 16.6668 10.0001 16.6668C4.90948 16.6668 2.61605 12.6772 1.8916 11.0503C1.59294 10.3795 1.59294 9.62079 1.8916 8.95006Z" fill="#9CA3AF"/>
<path fill-rule="evenodd" clip-rule="evenodd" d="M9.99996 6.6665C8.15901 6.6665 6.66663 8.15889 6.66663 9.99984C6.66663 11.8408 8.15901 13.3332 9.99996 13.3332C11.8409 13.3332 13.3333 11.8408 13.3333 9.99984C13.3333 8.15889 11.8409 6.6665 9.99996 6.6665ZM9.92935 8.33464C9.95276 8.33366 9.9763 8.33317 9.99996 8.33317C10.9204 8.33317 11.6666 9.07936 11.6666 9.99984C11.6666 10.9203 10.9204 11.6665 9.99996 11.6665C9.07948 11.6665 8.33329 10.9203 8.33329 9.99984C8.33329 9.97618 8.33379 9.95264 8.33476 9.92923C8.46467 9.97496 8.60441 9.99984 8.74996 9.99984C9.44032 9.99984 9.99996 9.44019 9.99996 8.74984C9.99996 8.60429 9.97508 8.46455 9.92935 8.33464Z" fill="#9CA3AF"/>
</svg>
