<svg width="19" height="19" viewBox="0 0 19 19" fill="none" xmlns="http://www.w3.org/2000/svg">
<path d="M0.686523 9.125C0.686523 8.80934 0.811921 8.5066 1.03513 8.28339C1.25834 8.06018 1.56108 7.93478 1.87674 7.93478H17.7463C18.062 7.93478 18.3647 8.06018 18.5879 8.28339C18.8111 8.5066 18.9365 8.80934 18.9365 9.125C18.9365 9.44067 18.8111 9.7434 18.5879 9.96661C18.3647 10.1898 18.062 10.3152 17.7463 10.3152H1.87674C1.56108 10.3152 1.25834 10.1898 1.03513 9.96661C0.811921 9.7434 0.686523 9.44067 0.686523 9.125Z" fill="#E47000"/>
<path d="M9.81149 -5.20261e-08C10.1272 -3.82279e-08 10.4299 0.125397 10.6531 0.348606C10.8763 0.571815 11.0017 0.874552 11.0017 1.19022L11.0017 17.0598C11.0017 17.3754 10.8763 17.6782 10.6531 17.9014C10.4299 18.1246 10.1272 18.25 9.81149 18.25C9.49583 18.25 9.19309 18.1246 8.96988 17.9014C8.74667 17.6782 8.62127 17.3754 8.62127 17.0598L8.62127 1.19022C8.62127 0.874552 8.74667 0.571815 8.96988 0.348606C9.19309 0.125397 9.49583 -6.58242e-08 9.81149 -5.20261e-08Z" fill="#E47000"/>
</svg>
