<svg width="43" height="45" viewBox="0 0 43 45" fill="none" xmlns="http://www.w3.org/2000/svg">
<path d="M21.4999 35.7706L11.5562 43.5809C11.0634 43.9956 10.5259 44.1919 9.94366 44.1698C9.36137 44.1476 8.84626 43.9744 8.39835 43.65C7.95043 43.3275 7.60374 42.8897 7.35828 42.3368C7.11282 41.7838 7.10118 41.1848 7.32335 40.5397L11.153 27.7529L1.41085 20.6338C0.873347 20.2652 0.537409 19.7814 0.403034 19.1824C0.268659 18.5833 0.291055 18.0304 0.470222 17.5235C0.649389 17.0167 0.96293 16.5669 1.41085 16.1744C1.85876 15.7818 2.39626 15.5864 3.02335 15.5882H15.0499L18.9468 2.31764C19.1707 1.67255 19.5183 1.17674 19.9895 0.830233C20.4607 0.483723 20.9642 0.311389 21.4999 0.313232C22.0374 0.313232 22.5418 0.486487 23.013 0.832997C23.4842 1.17951 23.8309 1.67439 24.053 2.31764L27.9499 15.5882H39.9765C40.6036 15.5882 41.1411 15.7845 41.589 16.1771C42.0369 16.5697 42.3504 17.0185 42.5296 17.5235C42.7088 18.0304 42.7312 18.5833 42.5968 19.1824C42.4624 19.7814 42.1265 20.2652 41.589 20.6338L31.8468 27.7529L35.6765 40.5397C35.9004 41.1848 35.8897 41.7838 35.6442 42.3368C35.3988 42.8897 35.0512 43.3275 34.6015 43.65C34.1536 43.9725 33.6384 44.1458 33.0562 44.1698C32.4739 44.1937 31.9364 43.9974 31.4437 43.5809L21.4999 35.7706Z" fill="#E4C54A"/>
</svg>
