<svg width="34" height="34" viewBox="0 0 34 34" fill="none" xmlns="http://www.w3.org/2000/svg">
<g clip-path="url(#clip0_24_629)">
<path d="M23.182 17C23.182 18.6395 22.5307 20.2119 21.3714 21.3712C20.2121 22.5305 18.6398 23.1818 17.0003 23.1818C15.3608 23.1818 13.7885 22.5305 12.6292 21.3712C11.4699 20.2119 10.8186 18.6395 10.8186 17C10.8186 15.3605 11.4699 13.7881 12.6292 12.6288C13.7885 11.4695 15.3608 10.8182 17.0003 10.8182C18.6398 10.8182 20.2121 11.4695 21.3714 12.6288C22.5307 13.7881 23.182 15.3605 23.182 17ZM20.8638 17C20.8638 15.9753 20.4568 14.9926 19.7322 14.268C19.0077 13.5434 18.025 13.1364 17.0003 13.1364C15.9756 13.1364 14.9929 13.5434 14.2683 14.268C13.5438 14.9926 13.1367 15.9753 13.1367 17C13.1367 18.0247 13.5438 19.0074 14.2683 19.732C14.9929 20.4566 15.9756 20.8636 17.0003 20.8636C18.025 20.8636 19.0077 20.4566 19.7322 19.732C20.4568 19.0074 20.8638 18.0247 20.8638 17Z" fill="white"/>
<path d="M17.0004 0C17.4115 0 17.8225 0.0139091 18.2321 0.0432727C19.4112 0.128273 20.3107 0.996818 20.5688 2.05855L21.1127 4.29945C21.1421 4.42 21.2518 4.56373 21.4605 4.641C21.8422 4.77855 22.2177 4.93464 22.5855 5.10773C22.7864 5.202 22.9657 5.17573 23.0723 5.11082L25.0428 3.91155C25.9746 3.34282 27.2233 3.366 28.1181 4.13873C28.7394 4.67809 29.3236 5.26073 29.8614 5.88355C30.6356 6.77682 30.6573 8.02555 30.0885 8.959L28.8893 10.9279C28.8244 11.0345 28.7997 11.2138 28.8924 11.4147C29.0655 11.7825 29.2216 12.1581 29.3607 12.5398C29.4348 12.7485 29.5801 12.8566 29.7006 12.8875L31.9415 13.4315C33.0032 13.6896 33.8717 14.5891 33.9552 15.7683C34.0139 16.5889 34.0139 17.4111 33.9552 18.2317C33.8717 19.4109 33.0032 20.3104 31.9415 20.5685L29.7006 21.1125C29.5801 21.1418 29.4364 21.2515 29.3591 21.4602C29.2216 21.8435 29.0655 22.219 28.8924 22.5853C28.7981 22.7862 28.8244 22.9655 28.8893 23.0721L30.0885 25.0425C30.6573 25.9745 30.6341 27.2232 29.8614 28.118C29.322 28.7393 28.7394 29.3235 28.1166 29.8613C27.2233 30.6355 25.9746 30.6572 25.0412 30.0885L23.0723 28.8892C22.9657 28.8243 22.7864 28.7995 22.5871 28.8923C22.2189 29.0655 21.843 29.2218 21.4605 29.3605C21.2518 29.4347 21.1437 29.58 21.1127 29.7005L20.5688 31.9415C20.3107 33.0032 19.4112 33.8717 18.2321 33.9552C17.4115 34.0139 16.5893 34.0139 15.7687 33.9552C14.5895 33.8717 13.6901 33.0032 13.432 31.9415L12.888 29.7005C12.8587 29.58 12.7489 29.4363 12.5403 29.359C12.158 29.2217 11.7825 29.0659 11.4152 28.8923C11.2143 28.798 11.0351 28.8243 10.9284 28.8892L8.95802 30.0885C8.02614 30.6572 6.77744 30.634 5.88264 29.8613C5.26138 29.3219 4.67721 28.7393 4.13941 28.1165C3.36515 27.2232 3.34352 25.9745 3.91223 25.041L5.11148 23.0721C5.17638 22.9655 5.20111 22.7862 5.10838 22.5868C4.93515 22.2186 4.77889 21.8427 4.64012 21.4602C4.56594 21.2515 4.42067 21.1434 4.30013 21.1125L2.05927 20.5685C0.997569 20.3104 0.129044 19.4109 0.0440455 18.2317C-0.0146818 17.4116 -0.0146818 16.5884 0.0440455 15.7683C0.129044 14.5891 0.997569 13.6896 2.05927 13.4315L4.30013 12.8875C4.42067 12.8582 4.5644 12.7485 4.64167 12.5398C4.77921 12.1565 4.9353 11.781 5.10838 11.4147C5.20265 11.2138 5.17638 11.0345 5.11148 10.9279L3.91223 8.95745C3.34352 8.02555 3.3667 6.77682 4.13941 5.882C4.67876 5.26073 5.26138 4.67655 5.88419 4.13873C6.77744 3.36445 8.02614 3.34282 8.95957 3.91155L10.9284 5.11082C11.0351 5.17573 11.2143 5.20045 11.4152 5.10773C11.7831 4.93464 12.1586 4.77855 12.5403 4.63945C12.7489 4.56527 12.8571 4.42 12.888 4.29945L13.432 2.05855C13.6901 0.996818 14.5895 0.128273 15.7687 0.0432727C16.1751 0.0154545 16.5862 0 17.0004 0ZM15.934 2.35682C15.849 2.363 15.7254 2.43409 15.6852 2.60564L15.1397 4.84655C15.0242 5.29945 14.7983 5.71671 14.4822 6.06108C14.1662 6.40544 13.7698 6.66621 13.3285 6.82009C13.0137 6.93424 12.7043 7.06265 12.4012 7.20491C11.9799 7.40872 11.5146 7.50495 11.0469 7.485C10.5793 7.46504 10.1239 7.32952 9.72146 7.09055L7.7526 5.89127C7.60115 5.79855 7.46515 5.83564 7.40024 5.89127C6.86255 6.35789 6.35852 6.86193 5.89191 7.39964C5.83628 7.46455 5.79919 7.60209 5.89191 7.752L7.09116 9.72091C7.57642 10.5385 7.61969 11.5445 7.20552 12.4007C7.06326 12.7038 6.93486 13.0132 6.82071 13.328C6.66702 13.7699 6.40616 14.1668 6.06149 14.4832C5.71681 14.7995 5.29907 15.0255 4.84566 15.1408L2.60481 15.6833C2.43481 15.725 2.36372 15.8486 2.35754 15.9336C2.30654 16.6436 2.30654 17.3564 2.35754 18.0664C2.36372 18.1514 2.43481 18.275 2.60635 18.3152L4.84721 18.8607C5.30011 18.9763 5.71735 19.2021 6.06171 19.5182C6.40607 19.8343 6.66683 20.2306 6.82071 20.672C6.93507 20.9873 7.06334 21.2964 7.20552 21.5993C7.61969 22.4539 7.57642 23.46 7.09116 24.2775L5.89191 26.248C5.79919 26.3995 5.83628 26.5355 5.89191 26.6004C6.35708 27.1382 6.86244 27.6435 7.40024 28.1087C7.46515 28.1644 7.60269 28.2015 7.7526 28.1087L9.72146 26.9095C10.1236 26.6698 10.579 26.5338 11.0467 26.5136C11.5144 26.4934 11.9798 26.5896 12.4012 26.7935C12.7041 26.9373 13.0132 27.0655 13.3285 27.1799C13.7704 27.3336 14.1672 27.5945 14.4836 27.9391C14.8 28.2838 15.0259 28.7016 15.1412 29.155L15.6837 31.3959C15.7254 31.5659 15.849 31.637 15.934 31.6432C16.644 31.6942 17.3567 31.6942 18.0667 31.6432C18.1517 31.637 18.2754 31.5659 18.3155 31.3944L18.8611 29.1535C18.9766 28.7004 19.2025 28.2829 19.5185 27.9383C19.8345 27.5937 20.2309 27.3326 20.6723 27.1784C20.9873 27.0654 21.2967 26.9375 21.5996 26.7951C22.0206 26.5913 22.4857 26.495 22.9531 26.515C23.4204 26.535 23.8756 26.6705 24.2778 26.9095L26.2482 28.1087C26.3996 28.2015 26.5356 28.1644 26.6005 28.1087C27.1383 27.6435 27.6437 27.1382 28.1089 26.6004C28.1645 26.5355 28.2016 26.3979 28.1089 26.248L26.9096 24.2775C26.6708 23.8753 26.5352 23.4203 26.515 22.953C26.4948 22.4857 26.5905 22.0206 26.7937 21.5993C26.9374 21.2964 27.0657 20.9873 27.1801 20.672C27.3338 20.2301 27.5946 19.8332 27.9393 19.5168C28.284 19.2005 28.7017 18.9745 29.1551 18.8592L31.396 18.3167C31.566 18.275 31.6371 18.1514 31.6432 18.0664C31.6942 17.3564 31.6942 16.6436 31.6432 15.9336C31.6371 15.8486 31.566 15.725 31.3944 15.6848L29.1536 15.1393C28.1861 14.9044 27.4845 14.1734 27.1785 13.328C27.0661 13.0128 26.9382 12.7033 26.7953 12.4007C26.5914 11.9794 26.4952 11.5141 26.5152 11.0464C26.5351 10.5788 26.6707 10.1234 26.9096 9.72091L28.1089 7.752C28.2016 7.60055 28.1645 7.46455 28.1089 7.39964C27.6423 6.86193 27.1382 6.35789 26.6005 5.89127C26.5356 5.83564 26.3981 5.79855 26.2482 5.89127L24.2778 7.09055C23.8756 7.32951 23.4204 7.46504 22.9531 7.485C22.4857 7.50496 22.0206 7.40872 21.5996 7.20491C21.2967 7.06211 20.9873 6.93369 20.6723 6.82009C20.2307 6.66591 19.8341 6.40489 19.5178 6.06029C19.2015 5.71568 18.9754 5.29819 18.8595 4.845L18.3171 2.60409C18.2754 2.43409 18.1517 2.363 18.0667 2.35682C17.3567 2.30582 16.644 2.30582 15.934 2.35682Z" fill="white"/>
</g>
<defs>
<clipPath id="clip0_24_629">
<rect width="34" height="34" fill="white"/>
</clipPath>
</defs>
</svg>
